<?xml version="1.0" standalone="no"?>
<!DOCTYPE svg PUBLIC "-//W3C//DTD SVG 1.1//EN" "http://www.w3.org/Graphics/SVG/1.1/DTD/svg11.dtd" >
<svg xmlns="http://www.w3.org/2000/svg">
<metadata></metadata>
<defs>
<font id="bell_centennialname__number" horiz-adv-x="1138" >
<font-face units-per-em="2048" ascent="1636" descent="-412" />
<missing-glyph horiz-adv-x="569" />
<glyph horiz-adv-x="2048" />
<glyph horiz-adv-x="2048" />
<glyph unicode="&#xd;" horiz-adv-x="2048" />
<glyph unicode=" "  horiz-adv-x="569" />
<glyph unicode="&#x09;" horiz-adv-x="569" />
<glyph unicode="&#xa0;" horiz-adv-x="569" />
<glyph unicode="!" horiz-adv-x="569" d="M113 0v305h344v-305h-344zM113 1518h342l-90 -1057h-164z" />
<glyph unicode="&#x22;" horiz-adv-x="643" d="M55 961v557h195v-557h-195zM395 961v557h195v-557h-195z" />
<glyph unicode="#" horiz-adv-x="1574" d="M70 428l61 172h297l90 252h-315l61 172h316l155 436h191l-154 -436h250l156 436h190l-154 -436h291l-59 -172h-293l-90 -252h309l-61 -172h-307l-156 -434h-191l156 434h-252l-158 -434h-190l156 434h-299zM618 598h256l91 254h-256z" />
<glyph unicode="$" d="M88 66v280h115q57 -81 122 -123t154 -51v416q-366 120 -366 448q0 175 115 295.5t302 130.5v101h129v-101q137 -8 302 -86v-276h-97q-32 73 -80.5 109.5t-124.5 45.5v-393q204 -80 298 -184t94 -262q0 -181 -115 -302.5t-313 -138.5v-143h-144v143q-178 6 -391 91z M377 1053q0 -164 168 -238v440q-168 -42 -168 -202zM594 172q98 15 150.5 70.5t52.5 140.5q0 160 -203 240v-451z" />
<glyph unicode="%" horiz-adv-x="1482" d="M72 1038q0 229 78 350t221 121q154 0 232.5 -119t78.5 -352q0 -465 -311 -465q-146 0 -222.5 117.5t-76.5 347.5zM207 23l418 536l57 -55l-215 -527h-260v46zM262 1036q0 -69 1 -107.5t4.5 -81.5t10 -64.5t19 -41.5t30.5 -27t44 -7q29 0 49.5 7t34 27t21 41t11 65 t4.5 81.5t1 107.5q0 73 -1 112t-4.5 84.5t-11 67t-21 42t-34 27.5t-49.5 7q-26 0 -44 -7t-30.5 -27.5t-19 -42.5t-10 -66.5t-4.5 -85t-1 -111.5zM801 442q0 229 78 350t221 121q154 0 232.5 -119t78.5 -352q0 -465 -311 -465q-146 0 -222.5 117.5t-76.5 347.5zM801 987 l219 522h256v-43l-420 -538zM991 440q0 -69 1 -107.5t4.5 -81.5t10 -64.5t19 -41.5t30.5 -27t44 -7q29 0 49.5 7t34 27t21 41t11 65t4.5 81.5t1 107.5q0 73 -1 112t-4.5 84.5t-11 67t-21 42t-34 27.5t-49.5 7q-26 0 -44 -7t-30.5 -27.5t-19 -42.5t-10 -66.5t-4.5 -85 t-1 -111.5z" />
<glyph unicode="&#x26;" horiz-adv-x="1394" d="M139 442q0 145 64.5 234t199.5 129v43q-89 52 -136.5 136.5t-47.5 186.5q0 160 108.5 265.5t284.5 105.5q178 0 287 -101t109 -245q0 -128 -77.5 -234t-207.5 -157v-47q212 -212 268 -352l27 10q18 161 18 389h260q-9 -315 -215 -463v-29l254 -313h-321l-84 152 q-99 -92 -186 -135.5t-183 -43.5q-185 0 -303.5 130t-118.5 339zM377 520q0 -143 85 -243.5t202 -100.5q97 0 192 86v14l-278 338q-42 52 -76 127l-31 4q-50 -47 -72 -100t-22 -125zM457 1169q0 -76 39.5 -141.5t132.5 -169.5q77 88 112 155t35 146q0 85 -43 136t-115 51 q-73 0 -117 -48.5t-44 -128.5z" />
<glyph unicode="'" horiz-adv-x="333" d="M70 961v557h194v-557h-194z" />
<glyph unicode="(" horiz-adv-x="768" d="M119 602q0 285 86 512t274 428h264v-69q-329 -214 -329 -871q0 -661 329 -872v-72h-264q-188 201 -274 429t-86 515z" />
<glyph unicode=")" horiz-adv-x="768" d="M25 -270q329 214 329 872q0 657 -329 871v69h264q187 -202 273.5 -429t86.5 -511q0 -287 -86 -515t-274 -429h-264v72z" />
<glyph unicode="*" d="M84 1112l76 168l354 -180l-47 418h203l-45 -418l354 180l76 -168l-391 -106l274 -285l-141 -113l-228 344l-227 -344l-141 113l272 285z" />
<glyph unicode="+" horiz-adv-x="1705" d="M336 412v213h409v411h213v-411h410v-213h-410v-412h-213v412h-409z" />
<glyph unicode="," horiz-adv-x="569" d="M115 29v305h340v-285q0 -190 -77.5 -288.5t-225.5 -98.5h-27v119q77 3 117.5 51.5t40.5 138.5v58h-168z" />
<glyph unicode="-" horiz-adv-x="1024" d="M199 649v228h626v-228h-626z" />
<glyph unicode="." horiz-adv-x="569" d="M115 0v334h340v-334h-340z" />
<glyph unicode="/" d="M96 -57l719 1607h227l-718 -1607h-228z" />
<glyph unicode="0" d="M84 772q0 746 481 746q259 0 373.5 -193.5t114.5 -607.5q0 -740 -482 -740q-253 0 -370 194.5t-117 600.5zM375 748q0 -308 40 -442t154 -134q48 0 81.5 24t55.5 67.5t34.5 117t17 159.5t4.5 208t-4.5 207.5t-17 158.5t-34.5 116.5t-55.5 67t-81.5 23.5 q-113 0 -153.5 -133.5t-40.5 -439.5z" />
<glyph unicode="1" d="M154 0v201q245 0 284 -21l17 21q-12 32 -14.5 82.5t-2.5 226.5v588q0 159 17 198l-17 19q-51 -19 -155 -19h-129v201h573v-1110q0 -123 -14 -186l14 -21q37 21 281 21v-201h-854z" />
<glyph unicode="2" d="M86 0v111q0 34 5 66t12 58.5t23 56.5t27 50.5t36.5 50.5t40.5 47t49 49.5t51 48.5t58.5 53t60.5 54q73 68 117 113.5t86.5 102.5t61.5 112.5t19 116.5q0 95 -50 149.5t-140 54.5q-175 0 -181 -276h-276q0 500 477 500q213 0 338 -122.5t125 -310.5q0 -147 -74.5 -267.5 t-228.5 -248.5q-71 -59 -222.5 -175.5t-226.5 -180.5l31 -35q83 53 173 67.5t231 14.5h344v-260h-967z" />
<glyph unicode="3" d="M109 49v266h110q25 -47 95 -76.5t161 -29.5q122 0 194 66t72 167q0 234 -327 240v221q301 18 301 207q0 80 -59.5 133t-151.5 53q-148 0 -264 -131h-101v267q219 86 389 86q218 0 342.5 -100t124.5 -267q0 -118 -71.5 -199.5t-200.5 -107.5v-47q154 -24 231 -113 q76 -85 76 -242q0 -210 -142 -337.5t-388 -127.5q-208 0 -391 72z" />
<glyph unicode="4" d="M55 393v260l527 844h364v-807q0 -61 -18 -100l18 -23q56 23 84 23h49v-197h-41q-28 0 -92 25l-18 -25q12 -30 15 -61t3 -103v-229h-289v238q0 62 6.5 94.5t24.5 60.5l-14 25q-73 -25 -146 -25h-473zM219 567l21 -24q102 51 235 51q149 0 242 -49l24 16q-57 129 -57 350 q0 251 61 422l-34 17z" />
<glyph unicode="5" d="M113 76v280h123q28 -67 91.5 -104t151.5 -37q119 0 188.5 68.5t69.5 187.5q0 117 -75.5 190.5t-196.5 73.5q-80 0 -168 -33h-115v795h826v-256h-334q-174 0 -268 66l-29 -29q14 -18 20.5 -38t7.5 -32.5t1 -36.5v-129q0 -23 -1 -35.5t-7.5 -32t-20.5 -36.5l29 -29 q95 29 182 29q193 0 315.5 -123.5t122.5 -325.5q0 -232 -145.5 -373t-382.5 -141q-112 0 -213.5 27t-171.5 74z" />
<glyph unicode="6" d="M63 575q0 118 32.5 231t100 226.5t157.5 224t218 240.5h330v-92q-127 -30 -199 -117l-350 -409l29 -33q66 62 130.5 88.5t147.5 26.5q177 0 295.5 -135t118.5 -337q0 -222 -142 -368t-362 -146q-236 0 -371 158.5t-135 441.5zM328 535q0 -146 70 -239t175 -93 q93 0 154 76t61 200q0 141 -64.5 223t-170.5 82q-105 0 -165 -65.5t-60 -183.5z" />
<glyph unicode="7" d="M72 0l598 1057q46 81 149 184l-16 39q-45 -18 -94.5 -27t-77 -10.5t-74.5 -1.5h-467v256h977v-217l-664 -1280h-331z" />
<glyph unicode="8" d="M55 412q0 111 70 191t219 149v24q-132 78 -193 161t-61 191q0 173 134 281.5t356 108.5q216 0 344.5 -108t128.5 -277q0 -213 -248 -328v-31q143 -75 208.5 -163t65.5 -212q0 -114 -60 -210t-174.5 -155t-260.5 -59q-160 0 -282 60.5t-184.5 159t-62.5 217.5zM317 446 q0 -113 75.5 -192.5t187.5 -79.5q92 0 155.5 59.5t63.5 147.5q0 96 -85 178t-270 172q-127 -158 -127 -285zM375 1155q0 -82 80.5 -168t232.5 -158q135 129 135 267q0 105 -64 166t-169 61q-91 0 -153 -49.5t-62 -118.5z" />
<glyph unicode="9" d="M63 1004q0 222 142 368t362 146q235 0 370.5 -158t135.5 -442q0 -227 -124.5 -446t-381.5 -472h-331v90q28 8 42.5 13t48 20.5t66 42t64.5 63.5l327 385l-28 33q-65 -61 -128.5 -88t-142.5 -27q-183 0 -302.5 134t-119.5 338zM350 1014q0 -141 64.5 -223t169.5 -82 t165 65t60 184q0 146 -70.5 239t-175.5 93q-91 0 -152 -76t-61 -200z" />
<glyph unicode=":" horiz-adv-x="681" d="M170 0v334h342v-334h-342zM170 752v333h342v-333h-342z" />
<glyph unicode=";" horiz-adv-x="681" d="M170 29v305h342v-285q0 -190 -77.5 -288.5t-225.5 -98.5h-27v119q77 3 117.5 51.5t40.5 138.5v58h-170zM170 752v333h342v-333h-342z" />
<glyph unicode="&#x3c;" horiz-adv-x="1705" d="M264 530v160l1178 486v-185l-934 -381l934 -381v-182z" />
<glyph unicode="=" horiz-adv-x="1705" d="M336 188v213h1032v-213h-1032zM336 635v213h1032v-213h-1032z" />
<glyph unicode="&#x3e;" horiz-adv-x="1705" d="M264 47v182l934 381l-934 381v185l1178 -486v-160z" />
<glyph unicode="?" d="M98 1100q0 215 118 328.5t341 113.5q226 0 352.5 -111t126.5 -307q0 -55 -12.5 -103.5t-29 -83t-52 -76t-61.5 -67t-76 -71.5q-74 -69 -96 -97q-39 -54 -39 -118q0 -19 2 -29h-254v84q0 70 22 117t76 104q28 30 71.5 69.5t68 64t50.5 58.5t38 74t12 89q0 86 -50 134 t-141 48q-86 0 -134 -55t-48 -152v-72h-283q-2 20 -2 58zM383 0v305h344v-305h-344z" />
<glyph unicode="@" horiz-adv-x="2048" d="M98 522q0 333 205 586q147 179 353 272t460 93q168 0 316.5 -46t253.5 -127q264 -203 264 -536q0 -163 -65 -302.5t-185 -236.5q-139 -112 -318 -112q-106 0 -157 40.5t-51 125.5v4q-55 -87 -128.5 -127.5t-175.5 -40.5q-152 0 -232.5 86.5t-80.5 249.5q0 156 64.5 284.5 t172.5 200.5t234 72q173 0 248 -142l55 107h154l-148 -586q-8 -40 -8 -49q0 -38 26.5 -61t69.5 -23q49 0 105.5 29.5t107.5 85.5q71 76 109.5 177t38.5 216q0 251 -185.5 410t-490.5 159q-276 0 -471 -125q-182 -114 -279.5 -291.5t-97.5 -394.5q0 -312 209.5 -499 t558.5 -187q167 0 325 49t290 142l67 -99q-300 -227 -674 -227q-386 0 -632 190q-308 235 -308 633zM741 444q0 -99 45 -151.5t129 -52.5q89 0 163 66t100 173l55 228q-13 85 -61 130.5t-123 45.5q-127 0 -217.5 -128.5t-90.5 -310.5z" />
<glyph unicode="A" horiz-adv-x="1251" d="M29 0l432 1518h315l447 -1518h-314l-69 315h-465l-68 -315h-278zM397 492h428q-34 64 -71 229l-95 438q-18 83 -26 176h-43q-4 -61 -27 -176l-102 -471q-20 -101 -64 -196z" />
<glyph unicode="B" horiz-adv-x="1251" d="M154 0v1518h411q112 0 189 -10t139 -40q88 -41 138 -121.5t50 -181.5q0 -221 -250 -346v-16q172 -37 253 -127t81 -248q0 -108 -42 -191.5t-115 -134.5t-163.5 -76.5t-193.5 -25.5h-497zM438 205h160q287 0 287 244q0 115 -74 170t-207 55h-166v-469zM438 852h127 q122 0 182 68.5t60 169.5q0 48 -10 82.5t-34.5 63.5t-71.5 43.5t-116 14.5h-137v-442z" />
<glyph unicode="C" horiz-adv-x="1251" d="M74 764q0 234 82.5 412t226.5 272t328 94q196 0 415 -121v-307h-108q-54 103 -118 150t-159 47q-174 0 -276.5 -144t-102.5 -399t102 -403t271 -148q201 0 283 195h108v-320q-162 -117 -368 -117q-322 0 -503 208t-181 581z" />
<glyph unicode="D" horiz-adv-x="1366" d="M141 0v1518h293q199 0 331.5 -29.5t244.5 -120.5q241 -197 241 -604q0 -441 -268 -635q-112 -81 -236 -105t-313 -24h-293zM426 233q37 -2 80 -2q232 0 346.5 132t114.5 399q0 264 -120 394t-364 130q-37 0 -57 -2v-1051z" />
<glyph unicode="E" d="M141 0v1518h865v-240h-580v-369h514v-217h-514v-456h598v-236h-883z" />
<glyph unicode="F" horiz-adv-x="1110" d="M141 0v1518h883v-242h-598v-422h567v-227h-567v-627h-285z" />
<glyph unicode="G" horiz-adv-x="1337" d="M86 717q0 404 174.5 614.5t509.5 210.5q238 0 426 -106v-312h-109q-101 203 -319 203q-393 0 -393 -596q0 -265 77.5 -393.5t241.5 -128.5q99 0 217 65v183q0 105 15 164q-64 -17 -135 -17h-101v205h506v-809h-229v147h-33q-106 -172 -336 -172q-247 0 -379.5 192 t-132.5 550z" />
<glyph unicode="H" horiz-adv-x="1366" d="M141 0v1518h285v-603h512v603h285v-1518h-285v686h-512v-686h-285z" />
<glyph unicode="I" horiz-adv-x="569" d="M141 0v1518h285v-1518h-285z" />
<glyph unicode="J" horiz-adv-x="1052" d="M59 463v188h285v-248q0 -125 35.5 -174t103.5 -49q78 0 111 61.5t33 192.5v1084h286v-1039q0 -120 -22 -209.5t-59.5 -145t-94 -89.5t-117 -47t-137.5 -13q-213 0 -318.5 116.5t-105.5 371.5z" />
<glyph unicode="K" horiz-adv-x="1251" d="M141 0v1518h285v-498q0 -146 -35 -301l31 -8q18 50 43 100t37.5 70.5t40.5 64.5l358 572h305l-313 -480q-55 -82 -164 -207q105 -127 148 -200l374 -631h-360l-363 702l-102 -114v-588h-285z" />
<glyph unicode="L" horiz-adv-x="1024" d="M141 0v1518h285v-1280h541v-238h-826z" />
<glyph unicode="M" horiz-adv-x="1705" d="M170 0v1518h377l219 -826q33 -125 47 -311h72q12 180 47 311l219 826h385v-1518h-240v895q0 226 19 340h-41l-338 -1194h-174l-340 1194h-39q27 -193 27 -340v-895h-240z" />
<glyph unicode="N" horiz-adv-x="1366" d="M141 0v1518h348l377 -859q49 -109 117 -311h37q-37 191 -37 350v820h240v-1518h-324l-428 969q-62 139 -90 272h-41q41 -238 41 -373v-868h-240z" />
<glyph unicode="O" horiz-adv-x="1366" d="M86 780q0 366 157.5 564t440.5 198q279 0 437.5 -199t158.5 -565q0 -394 -154 -598.5t-442 -204.5q-291 0 -444.5 204.5t-153.5 600.5zM377 758q0 -265 81.5 -405t223.5 -140q144 0 224.5 139.5t80.5 405.5q0 265 -82 407t-223 142t-223 -142t-82 -407z" />
<glyph unicode="P" horiz-adv-x="1251" d="M141 0v1518h424q170 -1 289 -35t186.5 -100t97 -150t29.5 -197q0 -107 -31.5 -196t-94 -156.5t-164.5 -105t-234 -37.5h-217v-541h-285zM426 739q29 -2 82 -2q190 0 279.5 67.5t89.5 215.5q0 41 -11 81t-36 81t-76.5 66.5t-122.5 25.5h-205v-535z" />
<glyph unicode="Q" horiz-adv-x="1366" d="M121 764q0 380 146.5 579t418.5 199q264 0 412.5 -198.5t148.5 -561.5q0 -234 -44 -385.5t-146 -238.5l12 -17q62 -20 102 -69l89 -109l-142 -139l-98 125q-35 44 -35 108v11l-12 12q-120 -105 -283 -105q-269 0 -419 204t-150 585zM406 778q0 -290 80.5 -437.5 t236.5 -147.5q49 0 102 20v18q-16 5 -29.5 11.5t-25.5 17.5t-18.5 17.5t-19.5 23t-17 21.5l-131 163l147 133l113 -139q19 -23 28 -35t21 -38t18 -54h17q35 161 35 428q0 257 -75 394t-208 137q-130 0 -202 -136.5t-72 -396.5z" />
<glyph unicode="R" horiz-adv-x="1251" d="M141 0v1518h336q324 0 485.5 -104.5t161.5 -328.5q0 -144 -79.5 -242.5t-243.5 -158.5v-16q86 -62 127 -136l295 -532h-336l-254 512q-39 76 -47 133q-66 -14 -135 -14h-25v-631h-285zM426 801q25 -2 72 -2q174 0 255 63.5t81 206.5q0 58 -21 109.5t-71 88t-121 36.5 h-195v-502z" />
<glyph unicode="S" horiz-adv-x="1165" d="M57 135v271h121q60 -96 144 -140.5t206 -44.5q133 0 206 51.5t73 145.5q0 47 -15 79t-65 62.5t-84 45t-132 51.5l-15 6q-111 41 -182 78t-125.5 87t-78.5 114.5t-24 150.5q0 199 144 321.5t372 122.5q200 0 406 -90v-301h-101q-95 170 -278 170q-103 0 -170.5 -58 t-67.5 -137q0 -36 12.5 -64.5t33 -49t55 -38.5t70.5 -32.5t87 -33.5q31 -11 47 -17q219 -81 315.5 -185t96.5 -272q0 -193 -146.5 -319.5t-388.5 -126.5q-309 0 -516 153z" />
<glyph unicode="T" d="M29 1278v240h1081v-240h-401v-1278h-287v1278h-393z" />
<glyph unicode="U" horiz-adv-x="1337" d="M141 555v963h285v-949q0 -75 5 -126t20 -97.5t41.5 -73t70 -42t105.5 -15.5q132 0 187.5 74t55.5 239v990h285v-963q0 -140 -18 -231t-76 -166q-67 -86 -179.5 -134.5t-252.5 -48.5q-144 0 -257 48.5t-180 134.5q-58 75 -75 164.5t-17 232.5z" />
<glyph unicode="V" horiz-adv-x="1222" d="M43 1518h268l236 -973q39 -162 39 -322h43q0 163 39 322l235 973h277l-449 -1530h-264z" />
<glyph unicode="W" horiz-adv-x="1820" d="M29 1518h280l176 -926q21 -120 41 -320h43q12 154 43 314l185 932h239l140 -744q59 -314 75 -502h43q10 148 43 314l185 932h270l-379 -1530h-242l-196 919q-22 97 -31 285h-47q-6 -123 -20 -217.5t-43 -229.5l-166 -757h-269z" />
<glyph unicode="X" horiz-adv-x="1222" d="M43 0l363 768l-361 750h295l178 -437q46 -108 70 -223h45q9 39 20.5 78t19.5 62.5t20.5 55.5t15.5 42l161 422h289l-352 -750l373 -768h-291l-191 440q-47 108 -84 242h-43q-28 -126 -73 -240l-176 -442h-279z" />
<glyph unicode="Y" horiz-adv-x="1222" d="M43 1518h303l172 -469q56 -149 82 -287h43q23 126 86 295l174 461h277l-422 -936v-582h-285v582z" />
<glyph unicode="Z" d="M57 0v238l549 872q56 86 135 172l-14 31q-79 -23 -276 -23h-367v228h967v-228l-543 -846q-79 -124 -162 -200l16 -33q110 27 244 27h475v-238h-1024z" />
<glyph unicode="[" d="M342 -313v1831h653v-168h-364v-1487h364v-176h-653z" />
<glyph unicode="\" d="M96 1550h228l718 -1607h-227z" />
<glyph unicode="]" d="M141 -137h367v1487h-367v168h656v-1831h-656v176z" />
<glyph unicode="^" horiz-adv-x="2048" d="M418 899l497 561h218l495 -561h-207l-397 397l-399 -397h-207z" />
<glyph unicode="_" horiz-adv-x="1024" d="M0 -154h1024v-102h-1024v102z" />
<glyph unicode="`" horiz-adv-x="1024" d="M162 1487v55h334q83 -146 206 -250v-37h-184q-165 146 -356 232z" />
<glyph unicode="a" horiz-adv-x="1052" d="M82 291q0 178 151.5 274.5t477.5 141.5v71q0 28 -9 54t-29.5 50.5t-60 39t-92.5 14.5q-172 0 -260 -141h-100v231q231 96 401 96q189 0 287 -102t98 -297v-559q0 -86 17 -166h-279v100q-146 -131 -291 -131q-133 0 -222 93.5t-89 230.5zM338 319q0 -66 46 -108.5 t118 -42.5q86 0 207 80v145q0 109 18 162l-20 10q-181 -24 -275 -88.5t-94 -157.5z" />
<glyph unicode="b" d="M141 0v1542h256v-549l23 -4q98 146 252 146q173 0 277 -154t104 -428q0 -265 -106 -418t-277 -153q-76 0 -135.5 34t-112.5 107l-25 -8v-115h-256zM397 281q57 -103 172 -103q105 0 164.5 97.5t59.5 277.5q0 195 -58.5 289t-179.5 94q-116 0 -158 -105v-550z" />
<glyph unicode="c" horiz-adv-x="1024" d="M86 547q0 286 129.5 439t372.5 153q186 0 350 -90v-242h-98q-82 139 -222 139q-125 0 -198.5 -104t-73.5 -291q0 -172 75 -273.5t193 -101.5q139 0 226 148h98v-261q-160 -92 -371 -92q-219 0 -350 154t-131 422z" />
<glyph unicode="d" d="M84 553q0 274 104 428t279 154q154 0 252 -146l20 4v549h256v-1542h-256v115l-22 8q-103 -141 -250 -141q-171 0 -277 153t-106 418zM346 553q0 -180 58 -277.5t163 -97.5q115 0 172 103v550q-45 105 -155 105q-121 0 -179.5 -94t-58.5 -289z" />
<glyph unicode="e" horiz-adv-x="1081" d="M84 578q0 266 127 413.5t356 147.5q202 0 316 -128.5t114 -367.5q0 -31 -4 -129h-649q17 -166 99 -254t214 -88q136 0 240 113h96v-228q-166 -90 -379 -90q-257 0 -393.5 158.5t-136.5 452.5zM319 657l25 -24q108 31 207 31q130 0 229 -31l25 24q-44 166 -97 240t-147 74 t-147 -74t-95 -240z" />
<glyph unicode="f" horiz-adv-x="681" d="M45 903v172h148v119q0 184 69 266t236 82h174v-194h-88q-92 0 -127 -17t-45 -74q-1 -3 -4 -67t-17 -115l27 -20q41 20 100 20h154v-172h-223v-903h-256v903h-148z" />
<glyph unicode="g" d="M84 614q0 225 106 357.5t277 132.5q145 0 250 -123l22 8v117h256v-936q0 -271 -108.5 -391.5t-366.5 -120.5q-195 0 -387 61v252h117q64 -108 256 -108q233 0 233 235v142l-20 2q-98 -125 -252 -125q-175 0 -279 132.5t-104 364.5zM346 618q0 -144 57 -222.5t162 -78.5 q108 0 174 84v439q-84 84 -180 84q-97 0 -155 -82t-58 -224z" />
<glyph unicode="h" d="M141 0v1542h256v-553l43 -8q67 78 122 109.5t136 31.5q61 0 108.5 -13.5t81.5 -37t58.5 -63.5t39.5 -84.5t23.5 -108.5t11.5 -127t3 -149v-539h-252v657q0 140 -45 205.5t-141 65.5q-100 0 -189 -105v-823h-256z" />
<glyph unicode="i" horiz-adv-x="569" d="M133 1331v211h303v-211h-303zM154 0v1075h256v-1075h-256z" />
<glyph unicode="j" horiz-adv-x="569" d="M-2 -135l27 -2q30 0 45 0.5t33.5 3.5t26 7t17.5 15t12.5 23t6 35t4 48t0.5 64v1016h256v-1106q0 -177 -78.5 -244t-279.5 -67l-70 2v205zM150 1331v211h303v-211h-303z" />
<glyph unicode="k" horiz-adv-x="1052" d="M141 0v1542h258v-694q0 -114 -22 -227l31 -13l342 496h303l-310 -387q-42 -52 -84 -70v-26q58 -46 109 -132l285 -489h-303l-283 559h-21l-47 -70v-489h-258z" />
<glyph unicode="l" horiz-adv-x="569" d="M156 0v1542h256v-1542h-256z" />
<glyph unicode="m" horiz-adv-x="1705" d="M127 0v1104h256v-115l18 -8q65 78 120 109.5t136 31.5q97 0 165.5 -39t125.5 -127l19 -10q69 99 135 137.5t168 38.5q101 0 175 -55t105 -152q20 -61 25.5 -135t5.5 -192v-588h-256v604q0 130 -18.5 200t-58 97t-111.5 27q-117 0 -160 -109v-819h-246v643 q0 145 -41.5 215t-146.5 70q-119 0 -160 -105v-823h-256z" />
<glyph unicode="n" d="M141 0v1104h256v-115l43 -8q67 78 122 109.5t136 31.5q61 0 108.5 -13.5t81.5 -37t58.5 -63.5t39.5 -84.5t23.5 -108.5t11.5 -127t3 -149v-539h-252v633q0 162 -41 228.5t-145 66.5q-100 0 -189 -105v-823h-256z" />
<glyph unicode="o" d="M86 555q0 282 126.5 433t356.5 151t357 -151.5t127 -432.5q0 -282 -127 -433t-357 -151t-356.5 151t-126.5 433zM342 555q0 -181 60 -278t167 -97q108 0 168 97t60 278q0 178 -61 276.5t-167 98.5q-105 0 -166 -98.5t-61 -276.5z" />
<glyph unicode="p" d="M141 -342v1446h256v-115l25 -8q104 143 248 143q171 0 277 -154t106 -421q0 -273 -103.5 -427.5t-277.5 -154.5q-154 0 -252 146l-23 -4v-451h-256zM397 270q42 -104 166 -104q230 0 230 385q0 180 -59.5 277.5t-164.5 97.5q-115 0 -172 -103v-553z" />
<glyph unicode="q" d="M84 551q0 265 106.5 419t276.5 154q146 0 250 -143l22 8v115h256v-1446h-256v451l-20 4q-48 -72 -114 -109t-138 -37q-175 0 -279 154t-104 430zM346 551q0 -385 227 -385q124 0 166 104v553q-57 103 -172 103q-105 0 -163 -97.5t-58 -277.5z" />
<glyph unicode="r" horiz-adv-x="796" d="M141 0v1104h221v-221l44 -6q59 117 133.5 165t201.5 48h27v-273h-125q-57 0 -97.5 -6.5t-68 -22.5t-43.5 -35t-24 -53t-10.5 -66.5t-2.5 -84.5v-549h-256z" />
<glyph unicode="s" horiz-adv-x="909" d="M86 815q0 150 101.5 237t283.5 87q153 0 313 -54v-223h-98q-85 113 -197 113q-71 0 -114 -35.5t-43 -93.5q0 -33 11 -56.5t38 -42.5t52.5 -32t75.5 -36.5t87 -43.5q120 -64 174.5 -133.5t54.5 -182.5q0 -161 -109 -256.5t-304 -95.5q-188 0 -324 60v254h113 q26 -60 80 -94.5t120 -34.5q73 0 121.5 41.5t48.5 95.5q0 28 -10.5 51.5t-24 39.5t-44 34.5t-52 29t-67.5 32t-72 34.5q-111 54 -163 127t-52 178z" />
<glyph unicode="t" horiz-adv-x="681" d="M31 903v172h170v324h227v-324h229v-172h-229v-590q0 -51 4 -77t20 -40.5t35 -17t62 -2.5h108v-176h-206q-51 0 -86.5 2t-66.5 9.5t-50 16.5t-34 29t-22.5 40t-12.5 56.5t-6 72.5t-1 93v584h-141z" />
<glyph unicode="u" d="M115 520v584h250v-660q0 -148 46.5 -209t141.5 -61q50 0 101.5 31t84.5 78v821h256v-1104h-256v113l-43 8q-65 -78 -121 -109.5t-137 -31.5q-203 0 -280 174q-28 61 -35.5 142.5t-7.5 223.5z" />
<glyph unicode="v" horiz-adv-x="937" d="M29 1104h288l115 -662q31 -171 39 -272h27q3 134 28 272l119 662h264l-317 -1104h-240z" />
<glyph unicode="w" horiz-adv-x="1507" d="M29 1104h266l88 -467q2 -11 12.5 -61.5t15 -78t12.5 -79.5t13.5 -110t9.5 -126h46q15 184 30 269l117 653h231l107 -653q21 -121 31 -269h47q1 46 5 91.5t12 94.5t13.5 80t16.5 85.5t14 72.5l94 498h269l-308 -1104h-245l-135 614q-19 91 -27 193h-47q-6 -66 -31 -193 l-123 -614h-239z" />
<glyph unicode="x" horiz-adv-x="937" d="M29 0l288 559l-278 545h301l121 -432h33l145 432h260l-278 -545l288 -559h-295l-135 440h-45l-135 -440h-270z" />
<glyph unicode="y" horiz-adv-x="937" d="M35 1104h291l139 -899h47l160 899h246l-336 -1112q-23 -76 -40.5 -120.5t-47 -90.5t-66.5 -69.5t-94.5 -38.5t-136.5 -15h-138v209h148q69 0 103.5 34t56.5 122z" />
<glyph unicode="z" horiz-adv-x="909" d="M57 0v215l375 541q30 41 127 157l-12 17q-53 -11 -143.5 -14t-299.5 -3v191h711v-174l-393 -590q-45 -67 -125 -141l14 -25q78 26 151 26q16 0 32 -1h360v-199h-797z" />
<glyph unicode="{" horiz-adv-x="1024" d="M162 483v179q5 0 26 -1.5t37 -1.5q98 0 144.5 61t46.5 200v247q0 129 19 196t83 105q50 29 120.5 39.5t190.5 10.5h45v-177h-88q-42 0 -62 -12.5t-31 -59t-11 -143.5v-241q0 -40 -2.5 -68t-16 -71t-37.5 -71.5t-72.5 -53.5t-115.5 -33v-33q67 -8 115.5 -33t72.5 -53.5 t37.5 -71.5t16 -71t2.5 -68v-242q0 -121 23.5 -168t80.5 -47h88v-174h-83q-190 0 -273 49q-63 37 -82.5 104.5t-19.5 194.5v248q0 139 -46 200.5t-145 61.5q-8 0 -29.5 -1t-33.5 -1z" />
<glyph unicode="|" horiz-adv-x="1024" d="M393 -512v2048h240v-2048h-240z" />
<glyph unicode="}" horiz-adv-x="1024" d="M150 -199h88q57 0 80.5 47t23.5 168v242q0 40 2.5 68t16 71t37.5 71.5t72.5 53.5t115.5 33v33q-67 8 -115.5 33t-72.5 53.5t-37.5 71.5t-16 71t-2.5 68v241q0 97 -11 143.5t-31 59t-62 12.5h-88v177h45q120 0 190.5 -10.5t120.5 -39.5q64 -38 83 -105t19 -196v-247 q0 -139 46.5 -200t144.5 -61q16 0 37 1.5t26 1.5v-179q-12 0 -33.5 1t-29.5 1q-99 0 -145 -61.5t-46 -200.5v-248q0 -127 -19.5 -194.5t-82.5 -104.5q-83 -49 -273 -49h-83v174z" />
<glyph unicode="~" horiz-adv-x="1705" d="M178 434v187q210 143 387 143q122 0 293 -59q12 -4 48.5 -17t51 -18t45.5 -14.5t51 -13.5t46.5 -7.5t50.5 -3.5q166 0 379 153v-184q-204 -141 -381 -141q-91 0 -191 35q-19 6 -79.5 27t-85.5 28.5t-71.5 20.5t-83.5 17.5t-75 4.5q-160 0 -385 -158z" />
<glyph unicode="&#xa1;" horiz-adv-x="569" d="M113 834v305h344v-305h-344zM115 -342l90 1020h164l88 -1020h-342z" />
<glyph unicode="&#xa2;" d="M100 569q0 279 126.5 438t363.5 179l-4 94h141v-94q182 -25 311 -94v-252h-108q-35 61 -84 95t-119 48v-797q120 17 203 150h108v-270q-158 -85 -313 -91v-118h-135v118h-10q-213 0 -346.5 162.5t-133.5 431.5zM387 584q0 -154 53 -257t150 -141v791q-203 -102 -203 -393 z" />
<glyph unicode="&#xa3;" d="M49 672v151q102 5 180 -26l13 16q-64 114 -64 240q0 214 137.5 339.5t378.5 125.5q151 0 350 -62v-340h-122q-64 180 -228 180q-99 0 -157 -60.5t-58 -162.5q0 -35 5.5 -77t10 -69t3 -58t-12.5 -56l15 -16q69 26 174 26h182v-151h-188q-96 0 -158 24l-12 -12 q30 -68 30 -127q0 -190 -182 -319l23 -41q72 45 164 57t253 12h277v-266h-1012v217q90 15 138.5 70.5t48.5 142.5q0 11 -4 84t-0.5 116.5t18.5 59.5l-10 10q-24 -14 -50.5 -20t-43.5 -7t-56 -1h-43z" />
<glyph unicode="&#xa4;" horiz-adv-x="1241" d="M43 117l201 200q-64 106 -64 236q0 131 64 235l-201 201l141 141l201 -200q104 63 236 63q135 0 235 -63l201 200l141 -141l-201 -201q64 -102 64 -235q0 -135 -64 -234l201 -202l-141 -142l-201 203q-104 -65 -235 -65q-132 0 -236 63l-201 -201zM426 553q0 -93 53 -154 t142 -61t141.5 61t52.5 154t-52.5 154t-141.5 61t-142 -61t-53 -154z" />
<glyph unicode="&#xa5;" d="M68 197v151h229q56 0 86.5 -4.5t58.5 -21.5l17 24q-33 47 -33 121v53q4 28 6.5 41t9.5 27.5t19 23.5l-19 29q-16 -13 -50.5 -19.5t-53 -7t-62.5 -0.5h-208v152h145q90 0 166 -18l16 22q-4 5 -9 12.5t-11 19.5l-11.5 23t-14 30.5t-15 34t-17.5 41t-18.5 44.5t-21.5 51.5 t-23 54.5l-184 437h295l106 -388q3 -13 36.5 -118t45.5 -168h27q10 55 26 108.5t34.5 107.5t25.5 79l108 379h293l-184 -437q-108 -258 -132 -296q-5 -10 -10 -15l17 -22q76 18 166 18h145v-152h-209q-109 0 -145 15q-12 5 -21 12l-18 -29q17 -12 23.5 -31.5t11.5 -60.5v-53 q0 -74 -33 -121l16 -24q28 17 59 21.5t87 4.5h229v-151h-262q-79 0 -113 22l-18 -22q35 -47 35 -144v-53h-285v53q0 97 35 144l-19 22q-34 -22 -112 -22h-262z" />
<glyph unicode="&#xa6;" horiz-adv-x="1024" d="M393 358h240v-716h-240v716zM393 666v716h240v-716h-240z" />
<glyph unicode="&#xa7;" d="M86 760q0 110 62.5 176.5t166.5 75.5v16q-151 82 -151 236q0 43 13 82.5t43 75.5t75 62.5t113 42t153 15.5q240 0 387 -203l-153 -104q-7 6 -37 34.5t-51 44.5t-59.5 32t-78.5 16q-118 0 -118 -76q0 -24 11 -45t25 -36t46.5 -34.5t56 -31.5t72.5 -35q174 -82 222 -111 q134 -80 165 -178q12 -36 12 -76q0 -43 -10.5 -81.5t-34 -76.5t-70 -62.5t-110.5 -29.5v-16q53 -34 86.5 -69.5t46.5 -69.5t16.5 -54t3.5 -47q0 -57 -22.5 -109t-68.5 -96.5t-128 -71t-190 -26.5q-69 0 -133 18.5t-108 46t-81 61t-56.5 60.5t-29.5 48l176 102 q21 -32 33.5 -48.5t40.5 -46t61.5 -44t71.5 -14.5q158 0 158 90q0 24 -9.5 43.5t-22.5 34t-47.5 34t-63.5 33t-91 41.5q-9 4 -42 18l-49.5 21t-50.5 23.5t-53.5 28.5t-49.5 32t-48 37.5t-39.5 42.5t-33 49.5t-19.5 55t-8 63.5zM342 817q0 -58 45.5 -97t151.5 -91l37 -18.5 t31.5 -16t25.5 -13l22 -11t17 -8t15.5 -6.5t12.5 -4.5t12 -4t11 -2.5q20 8 53 51t33 80q0 26 -12.5 49t-29 40t-50 38t-57.5 33t-70 34q-118 59 -172 70q-27 -6 -51.5 -44.5t-24.5 -78.5z" />
<glyph unicode="&#xa8;" horiz-adv-x="1024" d="M205 1280v238h229q-8 -90 -8 -119t8 -119h-229zM590 1280q8 68 8 119q0 25 -8 119h229v-238h-229z" />
<glyph unicode="&#xa9;" horiz-adv-x="1705" d="M55 719q0 166 63.5 306.5t169.5 234t244 146t289 52.5q119 0 231.5 -32.5t208.5 -97t168 -152.5t113 -206t41 -251q0 -134 -41 -253t-113 -207.5t-168 -153t-208.5 -97.5t-231.5 -33q-151 0 -289 52.5t-244 146.5t-169.5 236t-63.5 309zM223 719q0 -165 79.5 -303.5 t217 -218.5t301.5 -80q162 0 298.5 80t216 218.5t79.5 303.5q0 122 -47 233t-126.5 191t-189.5 127t-231 47q-122 0 -233 -47t-191 -127t-127 -191t-47 -233zM430 723q0 191 112 313.5t302 122.5q141 0 238 -80t118 -227h-164q-13 69 -65.5 105t-126.5 36q-103 0 -160 -73 t-57 -195q0 -116 61.5 -195t159.5 -79q78 0 129.5 38.5t58.5 108.5h170q-23 -146 -122 -228.5t-236 -82.5q-187 0 -302.5 124t-115.5 312z" />
<glyph unicode="&#xaa;" horiz-adv-x="790" d="M61 948q0 124 113 190.5t358 98.5v51q0 52 -37.5 81.5t-103.5 29.5q-129 0 -196 -99h-74v162q176 68 301 68q141 0 215 -72t74 -209q0 -306 1.5 -390t10.5 -116h-209v70q-113 -90 -219 -90q-100 0 -167 65t-67 160zM254 969q0 -46 34.5 -76.5t88.5 -30.5q63 0 155 56v65 q0 103 13 150l-15 6q-134 -15 -205 -59.5t-71 -110.5z" />
<glyph unicode="&#xab;" horiz-adv-x="1122" d="M47 557l260 317h250l-256 -317l258 -313v-6h-248zM498 557l252 317h260l-260 -317l258 -319h-250z" />
<glyph unicode="&#xac;" horiz-adv-x="1705" d="M336 635v213h1032v-627h-213v414h-819z" />
<glyph unicode="&#xad;" horiz-adv-x="1024" d="M199 649v228h626v-228h-626z" />
<glyph unicode="&#xae;" horiz-adv-x="1705" d="M55 719q0 166 63.5 306.5t169.5 234t244 146t289 52.5q119 0 231.5 -32.5t208.5 -97t168 -152.5t113 -206t41 -251q0 -134 -41 -253t-113 -207.5t-168 -153t-208.5 -97.5t-231.5 -33q-151 0 -289 52.5t-244 146.5t-169.5 236t-63.5 309zM223 719q0 -165 79.5 -303.5 t217 -218.5t301.5 -80q162 0 298.5 80t216 218.5t79.5 303.5q0 122 -47 233t-126.5 191t-189.5 127t-231 47q-122 0 -233 -47t-191 -127t-127 -191t-47 -233zM522 324v798h332q56 0 103 -10t88 -32t64.5 -63t23.5 -99q0 -75 -45 -126.5t-123 -70.5v-8q37 -2 63 -13.5 t40 -24.5t23.5 -42t12.5 -48t8 -61q2 -11 6 -46.5t7 -56.5t10.5 -49.5t17.5 -47.5h-176q-18 90 -21 122q-8 85 -20 119q-18 90 -78 90h-168v-331h-168zM690 782h148q123 0 123 111q0 54 -28.5 81t-94.5 30h-148v-222z" />
<glyph unicode="&#xaf;" horiz-adv-x="1024" d="M231 1323v150h562v-150h-562z" />
<glyph unicode="&#xb0;" horiz-adv-x="673" d="M16 1196q0 134 94 228t228 94q133 0 227 -94t94 -228t-94 -229t-227 -95t-227.5 95t-94.5 229zM152 1196q0 -85 52 -143t134 -58t134 58t52 143t-52 142t-134 57t-134 -57t-52 -142z" />
<glyph unicode="&#xb1;" horiz-adv-x="1705" d="M336 -106v212h1032v-212h-1032zM336 573v213h409v332h213v-332h410v-213h-410v-331h-213v331h-409z" />
<glyph unicode="&#xb2;" horiz-adv-x="751" d="M57 598v66q0 23 3 43.5t12 40.5t16 35t24 35t27 31.5t34.5 33t36.5 31.5t43 35t44 36q97 82 141.5 139.5t44.5 126.5q0 57 -32.5 90t-92.5 33q-115 0 -118 -166h-183q0 301 316 301q139 0 222 -74t83 -186q0 -88 -49.5 -160.5t-151.5 -148.5q-45 -34 -145.5 -105 t-151.5 -110l21 -20q56 32 114.5 40.5t151.5 8.5h227v-156h-637z" />
<glyph unicode="&#xb3;" horiz-adv-x="751" d="M72 627v159h73q15 -28 61.5 -45.5t106.5 -17.5q81 0 128.5 39.5t47.5 101.5q0 142 -217 142v133q199 9 199 125q0 48 -39 80t-100 32q-97 0 -174 -80h-66v160q141 53 256 53q144 0 226.5 -60.5t82.5 -160.5q0 -72 -47.5 -121.5t-132.5 -62.5v-29q203 -27 203 -211 q0 -126 -94 -203t-256 -77q-133 0 -258 43z" />
<glyph unicode="&#xb4;" horiz-adv-x="1024" d="M319 1255v37q122 102 207 250h334v-55q-192 -83 -356 -232h-185z" />
<glyph unicode="&#xb6;" horiz-adv-x="1024" d="M23 1100q0 97 35 178.5t90 132.5t119.5 79t127.5 28h578v-1823h-213v1630h-197v-1630h-213v971q-128 0 -227.5 125t-99.5 309z" />
<glyph unicode="&#xb7;" horiz-adv-x="569" d="M115 442v334h340v-334h-340z" />
<glyph unicode="&#xb8;" horiz-adv-x="1024" d="M293 -281q167 -38 258 -38q82 0 82 67q0 35 -26 48.5t-87 13.5q-27 0 -57 -3l2 193h96v-82h14q110 0 167 -44.5t57 -129.5q0 -180 -254 -180q-100 0 -252 39v116z" />
<glyph unicode="&#xb9;" horiz-adv-x="751" d="M102 596v121q97 0 133.5 -2t53.5 -10l12 12q-12 41 -12 67v463q0 101 12 129l-12 10q-29 -10 -187 -10v121h377v-631q0 -113 -8 -149l8 -12q25 12 187 12v-121h-564z" />
<glyph unicode="&#xba;" horiz-adv-x="854" d="M66 1135q0 197 94.5 302t267.5 105q171 0 267 -106t96 -301q0 -199 -95.5 -305.5t-267.5 -106.5q-173 0 -267.5 106t-94.5 306zM256 1135q0 -129 45.5 -197t126.5 -68t125.5 68t44.5 197q0 125 -45.5 193.5t-124.5 68.5t-125.5 -69t-46.5 -193z" />
<glyph unicode="&#xbb;" horiz-adv-x="1122" d="M47 874h252l260 -317l-252 -319h-250l252 319zM496 233l260 324l-260 317h252l262 -317l-265 -324h-249z" />
<glyph unicode="&#xbc;" horiz-adv-x="1705" d="M123 373v151h90q73 0 113 -16l12 16q-12 47 -12 158v539q0 85 12 127l-12 14q-24 -10 -48 -12t-83 -2h-72v149h407v-823q0 -106 -10 -150l10 -16q40 16 107 16h92v-151h-606zM915 47v197l375 633h258v-549q0 -100 -12 -131l12 -19q39 19 60 19h34v-150h-28q-17 0 -66 19 l-12 -19q12 -30 12 -100v-195h-205v144q0 70 4.5 98.5t18.5 52.5l-10 19q-55 -19 -103 -19h-338zM1032 178l15 -18q74 39 167 39q102 0 170 -37l19 12q-41 94 -41 264q0 179 45 316l-27 12z" />
<glyph unicode="&#xbd;" horiz-adv-x="1705" d="M123 373v151h90q73 0 113 -16l12 16q-12 46 -12 84v629q0 79 12 111l-12 14q-51 -14 -146 -14h-57v149h407v-889q0 -40 -10 -84l10 -16q40 16 99 16h100v-151h-606zM936 -164q0 44 11.5 84.5t25 68.5t46.5 66.5t53.5 58.5t68.5 66q68 63 106.5 102.5t77.5 89.5t55.5 96 t16.5 97q0 71 -36 112.5t-99 41.5q-124 0 -127 -207h-199q0 373 340 373q152 0 241 -90.5t89 -231.5q0 -48 -11 -92t-27.5 -80.5t-48.5 -77.5t-61.5 -72t-79.5 -75t-89.5 -76t-105 -85t-112.5 -93l21 -25q62 43 145.5 51.5t386.5 8.5v-195h-688v84z" />
<glyph unicode="&#xbe;" horiz-adv-x="1705" d="M117 424v201h80q18 -35 67.5 -58.5t112.5 -23.5q87 0 138.5 50t51.5 126q0 177 -233 180v166q213 12 213 156q0 60 -42 100.5t-102 40.5q-108 0 -192 -100h-72v200q155 66 277 66q155 0 243.5 -75.5t88.5 -201.5q0 -88 -51.5 -148.5t-143.5 -80.5v-37q107 -14 164 -84 q53 -68 53 -182q0 -161 -101 -255.5t-286 -94.5q-135 0 -266 55zM838 49v195l372 633h258v-607q0 -42 -12 -73l12 -19q39 19 60 19h35v-148h-29q-22 0 -66 17l-12 -17q12 -30 12 -67v-228h-204v209q0 48 22 86l-10 17q-50 -17 -102 -17h-336zM952 178l15 -18q74 39 168 39 q102 0 170 -37l18 12q-39 90 -39 264q0 185 43 316l-27 12z" />
<glyph unicode="&#xbf;" d="M102 14q0 55 12.5 103.5t29.5 83.5t52 76.5t61.5 67t76.5 71.5q74 69 96 97q39 54 39 118q0 18 -2 28h254v-84q0 -70 -22 -117t-76 -104q-38 -40 -111 -102.5t-101 -101.5t-28 -89q0 -86 49.5 -134t140.5 -48q86 0 134.5 55t48.5 152v72h282q2 -20 2 -58 q0 -215 -117.5 -328.5t-340.5 -113.5q-221 0 -350.5 101t-129.5 255zM412 834v305h344v-305h-344z" />
<glyph unicode="&#xc0;" horiz-adv-x="1251" d="M29 0l432 1518h315l447 -1518h-314l-69 315h-465l-68 -315h-278zM276 1829v55h334q82 -144 207 -250v-37h-184q-164 145 -357 232zM397 492h428q-34 64 -71 229l-95 438q-18 83 -26 176h-43q-4 -61 -27 -176l-102 -471q-20 -101 -64 -196z" />
<glyph unicode="&#xc1;" horiz-adv-x="1251" d="M29 0l432 1518h315l447 -1518h-314l-69 315h-465l-68 -315h-278zM397 492h428q-34 64 -71 229l-95 438q-18 83 -26 176h-43q-4 -61 -27 -176l-102 -471q-20 -101 -64 -196zM434 1597v37q122 102 207 250h334v-55q-193 -84 -357 -232h-184z" />
<glyph unicode="&#xc2;" horiz-adv-x="1251" d="M29 0l432 1518h315l447 -1518h-314l-69 315h-465l-68 -315h-278zM287 1597v58q46 26 95.5 85t90.5 144h307q34 -75 83 -135t104 -94v-58h-146q-67 27 -104.5 72.5t-65.5 116.5h-49q-55 -143 -170 -189h-145zM397 492h428q-34 64 -71 229l-95 438q-18 83 -26 176h-43 q-4 -61 -27 -176l-102 -471q-20 -101 -64 -196z" />
<glyph unicode="&#xc3;" horiz-adv-x="1251" d="M29 0l432 1518h315l447 -1518h-314l-69 315h-465l-68 -315h-278zM317 1616q26 116 79 179t120 63q32 0 65 -13.5t94 -49t89 -50.5q40 55 55 121h115q-31 -124 -81.5 -184t-125.5 -60q-48 0 -104 28t-138 87q-37 -59 -51 -121h-117zM397 492h428q-34 64 -71 229l-95 438 q-18 83 -26 176h-43q-4 -61 -27 -176l-102 -471q-20 -101 -64 -196z" />
<glyph unicode="&#xc4;" horiz-adv-x="1251" d="M29 0l432 1518h315l447 -1518h-314l-69 315h-465l-68 -315h-278zM319 1622v238h230q-8 -90 -8 -119t8 -119h-230zM397 492h428q-34 64 -71 229l-95 438q-18 83 -26 176h-43q-4 -61 -27 -176l-102 -471q-20 -101 -64 -196zM705 1622q8 68 8 119q0 25 -8 119h229v-238h-229 z" />
<glyph unicode="&#xc5;" horiz-adv-x="1251" d="M29 0l432 1518h315l447 -1518h-314l-69 315h-465l-68 -315h-278zM391 1806q0 98 70.5 168t167.5 70t166 -70t69 -168t-69 -167.5t-166 -69.5t-167.5 69.5t-70.5 167.5zM397 492h428q-34 64 -71 229l-95 438q-18 83 -26 176h-43q-4 -61 -27 -176l-102 -471 q-20 -101 -64 -196zM526 1804q0 -41 30 -70.5t73 -29.5t72.5 28.5t29.5 71.5q0 44 -29.5 74.5t-72.5 30.5t-73 -30.5t-30 -74.5z" />
<glyph unicode="&#xc6;" horiz-adv-x="1724" d="M29 0l643 1518h919v-240h-477v-369h412v-217h-412v-456h496v-236h-781v315h-421l-101 -315h-278zM436 479q31 10 84 10h221q74 0 103 -10v21q-15 31 -15 112v699h-47l-230 -629l-6 -18q0 1 3 8q-44 -123 -113 -172v-21z" />
<glyph unicode="&#xc7;" horiz-adv-x="1251" d="M74 764q0 234 82.5 412t226.5 272t328 94q196 0 415 -121v-307h-108q-54 103 -118 150t-159 47q-174 0 -276.5 -144t-102.5 -399t102 -403t271 -148q201 0 283 195h108v-320q-159 -114 -358 -117v-57h14q110 0 167 -44.5t57 -129.5q0 -180 -254 -180q-100 0 -252 39v116 q167 -38 258 -38q82 0 82 67q0 35 -26 48.5t-87 13.5q-27 0 -57 -3l2 173q-284 28 -441 233t-157 551z" />
<glyph unicode="&#xc8;" d="M141 0v1518h865v-240h-580v-369h514v-217h-514v-456h598v-236h-883zM219 1829v55h334q82 -144 207 -250v-37h-185q-165 146 -356 232z" />
<glyph unicode="&#xc9;" d="M141 0v1518h865v-240h-580v-369h514v-217h-514v-456h598v-236h-883zM377 1597v37q122 102 207 250h334v-55q-193 -84 -357 -232h-184z" />
<glyph unicode="&#xca;" d="M141 0v1518h865v-240h-580v-369h514v-217h-514v-456h598v-236h-883zM229 1597v58q47 26 96.5 85.5t90.5 143.5h307q72 -160 186 -229v-58h-145q-67 27 -104.5 72.5t-65.5 116.5h-49q-55 -143 -170 -189h-146z" />
<glyph unicode="&#xcb;" d="M141 0v1518h865v-240h-580v-369h514v-217h-514v-456h598v-236h-883zM262 1622v238h230q-9 -101 -9 -119t9 -119h-230zM647 1622q8 68 8 119q0 25 -8 119h230v-238h-230z" />
<glyph unicode="&#xcc;" horiz-adv-x="569" d="M-66 1829v55h334q82 -144 207 -250v-37h-184q-164 145 -357 232zM141 0v1518h285v-1518h-285z" />
<glyph unicode="&#xcd;" horiz-adv-x="569" d="M92 1597v37q122 102 207 250h334v-55q-193 -84 -357 -232h-184zM141 0v1518h285v-1518h-285z" />
<glyph unicode="&#xce;" horiz-adv-x="569" d="M-55 1597v58q46 26 95.5 85t90.5 144h307q34 -75 83 -135t104 -94v-58h-146q-67 27 -104.5 72.5t-65.5 116.5h-49q-55 -143 -170 -189h-145zM141 0v1518h285v-1518h-285z" />
<glyph unicode="&#xcf;" horiz-adv-x="569" d="M-23 1622v238h230q-8 -90 -8 -119t8 -119h-230zM141 0v1518h285v-1518h-285zM362 1622q9 76 9 119q0 13 -9 119h230v-238h-230z" />
<glyph unicode="&#xd0;" horiz-adv-x="1366" d="M0 692v217h141v609h293q199 0 331.5 -29.5t244.5 -120.5q241 -197 241 -604q0 -441 -268 -635q-112 -81 -236 -105t-313 -24h-293v692h-141zM408 655q18 -29 18 -163v-259q37 -2 80 -2q232 0 346.5 132t114.5 399q0 264 -120 394t-364 130q-37 0 -57 -2v-221 q0 -38 -0.5 -55t-4.5 -36t-13 -30v-49q27 16 137 16h196v-217h-114q-9 0 -52.5 -1t-64 0t-52 5t-50.5 13v-54z" />
<glyph unicode="&#xd1;" horiz-adv-x="1366" d="M141 0v1518h348l377 -859q49 -109 117 -311h37q-37 191 -37 350v820h240v-1518h-324l-428 969q-62 139 -90 272h-41q41 -238 41 -373v-868h-240zM375 1616q26 117 78.5 179.5t119.5 62.5q32 0 65 -13.5t94 -49t89 -50.5q42 57 56 121h114q-31 -124 -81.5 -184t-125.5 -60 q-48 0 -103.5 28t-137.5 87q-37 -59 -51 -121h-117z" />
<glyph unicode="&#xd2;" horiz-adv-x="1366" d="M86 780q0 366 157.5 564t440.5 198q279 0 437.5 -199t158.5 -565q0 -394 -154 -598.5t-442 -204.5q-291 0 -444.5 204.5t-153.5 600.5zM334 1829v55h334q83 -146 206 -250v-37h-184q-165 146 -356 232zM377 758q0 -265 81.5 -405t223.5 -140q144 0 224.5 139.5 t80.5 405.5q0 265 -82 407t-223 142t-223 -142t-82 -407z" />
<glyph unicode="&#xd3;" horiz-adv-x="1366" d="M86 780q0 366 157.5 564t440.5 198q279 0 437.5 -199t158.5 -565q0 -394 -154 -598.5t-442 -204.5q-291 0 -444.5 204.5t-153.5 600.5zM377 758q0 -265 81.5 -405t223.5 -140q144 0 224.5 139.5t80.5 405.5q0 265 -82 407t-223 142t-223 -142t-82 -407zM492 1597v37 q120 100 206 250h334v-55q-192 -83 -356 -232h-184z" />
<glyph unicode="&#xd4;" horiz-adv-x="1366" d="M86 780q0 366 157.5 564t440.5 198q279 0 437.5 -199t158.5 -565q0 -394 -154 -598.5t-442 -204.5q-291 0 -444.5 204.5t-153.5 600.5zM344 1597v58q46 26 95.5 85t90.5 144h308q72 -160 186 -229v-58h-145q-67 27 -104.5 72.5t-65.5 116.5h-50q-55 -143 -170 -189h-145z M377 758q0 -265 81.5 -405t223.5 -140q144 0 224.5 139.5t80.5 405.5q0 265 -82 407t-223 142t-223 -142t-82 -407z" />
<glyph unicode="&#xd5;" horiz-adv-x="1366" d="M86 780q0 366 157.5 564t440.5 198q279 0 437.5 -199t158.5 -565q0 -394 -154 -598.5t-442 -204.5q-291 0 -444.5 204.5t-153.5 600.5zM375 1616q26 117 78.5 179.5t119.5 62.5q32 0 65 -13.5t94 -49t89 -50.5q42 57 56 121h114q-31 -124 -81.5 -184t-125.5 -60 q-48 0 -103.5 28t-137.5 87q-37 -59 -51 -121h-117zM377 758q0 -265 81.5 -405t223.5 -140q144 0 224.5 139.5t80.5 405.5q0 265 -82 407t-223 142t-223 -142t-82 -407z" />
<glyph unicode="&#xd6;" horiz-adv-x="1366" d="M86 780q0 366 157.5 564t440.5 198q279 0 437.5 -199t158.5 -565q0 -394 -154 -598.5t-442 -204.5q-291 0 -444.5 204.5t-153.5 600.5zM377 758q0 -265 81.5 -405t223.5 -140q144 0 224.5 139.5t80.5 405.5q0 265 -82 407t-223 142t-223 -142t-82 -407zM377 1622v238h229 q-8 -90 -8 -119t8 -119h-229zM762 1622q8 68 8 119q0 25 -8 119h229v-238h-229z" />
<glyph unicode="&#xd7;" horiz-adv-x="1705" d="M362 176l343 342l-343 342l148 148l342 -342l342 342l147 -148l-344 -342l344 -342l-147 -147l-342 344l-342 -344z" />
<glyph unicode="&#xd8;" horiz-adv-x="1366" d="M-23 131l68 70q44 49 127 71l8 41q-92 155 -94 467q0 366 157.5 564t440.5 198q87 0 162.5 -20t122 -50t74 -56t38.5 -48l41 -8q-7 40 62 123l49 59l158 -156l-68 -69q-45 -50 -127 -72l-8 -41q36 -60 64 -167t28 -259q0 -394 -154 -598.5t-442 -204.5q-87 0 -162.5 20 t-122 50.5t-74 56.5t-38.5 48l-41 8q7 -40 -62 -123l-49 -60zM360 590l41 -21q17 63 125 166l211 228q65 72 105 98t82 31l24 24q-10 12 -34 45t-41.5 53t-46.5 44.5t-66.5 36.5t-83.5 12q-37 0 -73 -10.5t-79.5 -45.5t-76 -91.5t-54.5 -158t-22 -235.5q0 -103 -11 -176z M416 403q10 -12 28.5 -37t32 -42.5t36 -39.5t45 -35t55 -21.5t69.5 -6.5q37 0 73.5 10.5t82 45.5t78.5 91t56 158t23 236q0 100 9 168l-41 20q-17 -61 -72 -119l-264 -274q-65 -72 -105 -98t-82 -31z" />
<glyph unicode="&#xd9;" horiz-adv-x="1337" d="M141 555v963h285v-949q0 -75 5 -126t20 -97.5t41.5 -73t70 -42t105.5 -15.5q132 0 187.5 74t55.5 239v990h285v-963q0 -140 -18 -231t-76 -166q-67 -86 -179.5 -134.5t-252.5 -48.5q-144 0 -257 48.5t-180 134.5q-58 75 -75 164.5t-17 232.5zM319 1829v55h334 q82 -144 207 -250v-37h-184q-164 145 -357 232z" />
<glyph unicode="&#xda;" horiz-adv-x="1337" d="M141 555v963h285v-949q0 -75 5 -126t20 -97.5t41.5 -73t70 -42t105.5 -15.5q132 0 187.5 74t55.5 239v990h285v-963q0 -140 -18 -231t-76 -166q-67 -86 -179.5 -134.5t-252.5 -48.5q-144 0 -257 48.5t-180 134.5q-58 75 -75 164.5t-17 232.5zM477 1597v37 q122 102 207 250h334v-55q-192 -83 -356 -232h-185z" />
<glyph unicode="&#xdb;" horiz-adv-x="1337" d="M141 555v963h285v-949q0 -75 5 -126t20 -97.5t41.5 -73t70 -42t105.5 -15.5q132 0 187.5 74t55.5 239v990h285v-963q0 -140 -18 -231t-76 -166q-67 -86 -179.5 -134.5t-252.5 -48.5q-144 0 -257 48.5t-180 134.5q-58 75 -75 164.5t-17 232.5zM330 1597v58q46 26 95.5 85 t90.5 144h307q34 -75 83 -135t104 -94v-58h-146q-67 27 -104.5 72.5t-65.5 116.5h-49q-55 -143 -170 -189h-145z" />
<glyph unicode="&#xdc;" horiz-adv-x="1337" d="M141 555v963h285v-949q0 -75 5 -126t20 -97.5t41.5 -73t70 -42t105.5 -15.5q132 0 187.5 74t55.5 239v990h285v-963q0 -140 -18 -231t-76 -166q-67 -86 -179.5 -134.5t-252.5 -48.5q-144 0 -257 48.5t-180 134.5q-58 75 -75 164.5t-17 232.5zM362 1622v238h230 q-8 -90 -8 -119t8 -119h-230zM748 1622q8 68 8 119q0 25 -8 119h229v-238h-229z" />
<glyph unicode="&#xdd;" horiz-adv-x="1222" d="M43 1518h303l172 -469q56 -149 82 -287h43q23 126 86 295l174 461h277l-422 -936v-582h-285v582zM420 1597v37q122 102 207 250h334v-55q-193 -84 -357 -232h-184z" />
<glyph unicode="&#xde;" horiz-adv-x="1251" d="M141 0v1518h285v-209h209q532 0 532 -424q0 -113 -32 -205t-96 -160t-167.5 -105.5t-238.5 -37.5h-207v-377h-285zM426 575q29 -2 82 -2q190 0 279.5 67.5t89.5 215.5q0 254 -283 254h-168v-535z" />
<glyph unicode="&#xdf;" horiz-adv-x="1130" d="M141 4v979q0 59 0.5 89.5t4 86t10.5 87t21 77.5t34 73t51.5 58.5t71.5 48t95 28t122 11.5q229 0 336 -125q31 -36 50.5 -74.5t27 -80t9 -65.5t1.5 -62q0 -59 -15 -109.5t-37 -81.5t-48.5 -54.5t-46.5 -33.5t-35 -14v-8q47 -9 80.5 -22t68.5 -41.5t56.5 -71t35 -113 t13.5 -164.5q0 -430 -310 -430q-123 0 -145 12v164q54 -35 129 -8q19 7 33.5 24t23 44t13.5 52t7 63t2 60t-0.5 59t-0.5 46q0 34 -2 61.5t-7.5 49.5t-10.5 38.5t-17 28.5l-20.5 20.5t-27.5 14t-30.5 8.5t-37.5 4.5t-41 1.5h-48v162q30 0 46 1t37.5 5t32 12.5t23 24t18 39.5 t9.5 58.5t4 80.5q0 29 -0.5 45.5t-3.5 47.5t-9 50.5t-18 44t-29.5 38.5t-44.5 24t-61 10q-47 0 -79 -15.5t-48.5 -36t-25 -60t-10 -66t-1.5 -74.5v-1122h-256z" />
<glyph unicode="&#xe0;" horiz-adv-x="1052" d="M82 291q0 178 151.5 274.5t477.5 141.5v71q0 28 -9 54t-29.5 50.5t-60 39t-92.5 14.5q-172 0 -260 -141h-100v231q231 96 401 96q189 0 287 -102t98 -297v-559q0 -86 17 -166h-279v100q-146 -131 -291 -131q-133 0 -222 93.5t-89 230.5zM176 1487v55h334 q82 -144 207 -250v-37h-185q-165 146 -356 232zM338 319q0 -66 46 -108.5t118 -42.5q86 0 207 80v145q0 109 18 162l-20 10q-181 -24 -275 -88.5t-94 -157.5z" />
<glyph unicode="&#xe1;" horiz-adv-x="1052" d="M82 291q0 178 151.5 274.5t477.5 141.5v71q0 28 -9 54t-29.5 50.5t-60 39t-92.5 14.5q-172 0 -260 -141h-100v231q231 96 401 96q189 0 287 -102t98 -297v-559q0 -86 17 -166h-279v100q-146 -131 -291 -131q-133 0 -222 93.5t-89 230.5zM334 1255v37q122 102 207 250h333 v-55q-192 -83 -356 -232h-184zM338 319q0 -66 46 -108.5t118 -42.5q86 0 207 80v145q0 109 18 162l-20 10q-181 -24 -275 -88.5t-94 -157.5z" />
<glyph unicode="&#xe2;" horiz-adv-x="1052" d="M82 291q0 178 151.5 274.5t477.5 141.5v71q0 28 -9 54t-29.5 50.5t-60 39t-92.5 14.5q-172 0 -260 -141h-100v231q231 96 401 96q189 0 287 -102t98 -297v-559q0 -86 17 -166h-279v100q-146 -131 -291 -131q-133 0 -222 93.5t-89 230.5zM186 1255v58q47 26 96.5 85.5 t90.5 143.5h307q72 -160 186 -229v-58h-145q-67 27 -104.5 72.5t-65.5 116.5h-49q-55 -143 -170 -189h-146zM338 319q0 -66 46 -108.5t118 -42.5q86 0 207 80v145q0 109 18 162l-20 10q-181 -24 -275 -88.5t-94 -157.5z" />
<glyph unicode="&#xe3;" horiz-adv-x="1052" d="M82 291q0 178 151.5 274.5t477.5 141.5v71q0 28 -9 54t-29.5 50.5t-60 39t-92.5 14.5q-172 0 -260 -141h-100v231q231 96 401 96q189 0 287 -102t98 -297v-559q0 -86 17 -166h-279v100q-146 -131 -291 -131q-133 0 -222 93.5t-89 230.5zM217 1274q26 116 79 179t120 63 q32 0 65 -13.5t94 -49t89 -50.5q40 55 55 121h115q-31 -124 -81.5 -184t-125.5 -60q-48 0 -104 28t-138 87q-37 -59 -51 -121h-117zM338 319q0 -66 46 -108.5t118 -42.5q86 0 207 80v145q0 109 18 162l-20 10q-181 -24 -275 -88.5t-94 -157.5z" />
<glyph unicode="&#xe4;" horiz-adv-x="1052" d="M82 291q0 178 151.5 274.5t477.5 141.5v71q0 28 -9 54t-29.5 50.5t-60 39t-92.5 14.5q-172 0 -260 -141h-100v231q231 96 401 96q189 0 287 -102t98 -297v-559q0 -86 17 -166h-279v100q-146 -131 -291 -131q-133 0 -222 93.5t-89 230.5zM219 1280v238h230 q-9 -101 -9 -119t9 -119h-230zM338 319q0 -66 46 -108.5t118 -42.5q86 0 207 80v145q0 109 18 162l-20 10q-181 -24 -275 -88.5t-94 -157.5zM604 1280q8 68 8 119q0 25 -8 119h230v-238h-230z" />
<glyph unicode="&#xe5;" horiz-adv-x="1052" d="M82 291q0 178 151.5 274.5t477.5 141.5v71q0 28 -9 54t-29.5 50.5t-60 39t-92.5 14.5q-172 0 -260 -141h-100v231q231 96 401 96q189 0 287 -102t98 -297v-559q0 -86 17 -166h-279v100q-146 -131 -291 -131q-133 0 -222 93.5t-89 230.5zM291 1464q0 98 70 168t167 70 t166.5 -70t69.5 -168t-69.5 -167.5t-166.5 -69.5t-167 69.5t-70 167.5zM338 319q0 -66 46 -108.5t118 -42.5q86 0 207 80v145q0 109 18 162l-20 10q-181 -24 -275 -88.5t-94 -157.5zM426 1462q0 -41 29.5 -70.5t72.5 -29.5t73 29t30 71q0 44 -30 74.5t-73 30.5t-72.5 -30.5 t-29.5 -74.5z" />
<glyph unicode="&#xe6;" horiz-adv-x="1724" d="M82 291q0 179 155.5 274t497.5 137v89q0 43 -16 72.5t-47.5 45t-67.5 21.5t-84 6q-172 0 -260 -141h-100v231q231 96 401 96q208 0 303 -121q129 138 346 138q202 0 316 -128.5t114 -367.5q0 -31 -4 -129h-649q17 -166 99 -254t214 -88q136 0 240 113h96v-228 q-166 -90 -379 -90q-84 0 -155.5 17.5t-121 47.5t-81.5 58.5t-55 59.5q-183 -108 -277.5 -145.5t-173.5 -37.5q-133 0 -222 93.5t-89 230.5zM338 319q0 -66 46 -108.5t118 -42.5q57 0 153 47q18 8 43 23t43 24t31 8l8 19q-22 31 -35 84l-8 39q-10 52 -9 96t9 59l-14 13 q-21 -9 -104 -29t-125 -41q-91 -42 -123.5 -89t-32.5 -102zM963 657l24 -24q109 31 207 31q130 0 229 -31l25 24q-44 166 -97 240t-147 74t-146.5 -74t-94.5 -240z" />
<glyph unicode="&#xe7;" horiz-adv-x="1024" d="M86 547q0 286 129.5 439t372.5 153q186 0 350 -90v-242h-98q-82 139 -222 139q-125 0 -198.5 -104t-73.5 -291q0 -172 75 -273.5t193 -101.5q139 0 226 148h98v-261q-154 -89 -356 -92v-53h14q110 0 166.5 -44.5t56.5 -129.5q0 -180 -254 -180q-100 0 -252 39v116 q167 -38 258 -38q82 0 82 67q0 35 -25.5 48.5t-86.5 13.5q-28 0 -58 -3l2 173q-185 28 -292 177.5t-107 389.5z" />
<glyph unicode="&#xe8;" horiz-adv-x="1081" d="M84 578q0 266 127 413.5t356 147.5q202 0 316 -128.5t114 -367.5q0 -31 -4 -129h-649q17 -166 99 -254t214 -88q136 0 240 113h96v-228q-166 -90 -379 -90q-257 0 -393.5 158.5t-136.5 452.5zM190 1487v55h334q82 -144 207 -250v-37h-184q-164 145 -357 232zM319 657 l25 -24q108 31 207 31q130 0 229 -31l25 24q-44 166 -97 240t-147 74t-147 -74t-95 -240z" />
<glyph unicode="&#xe9;" horiz-adv-x="1081" d="M84 578q0 266 127 413.5t356 147.5q202 0 316 -128.5t114 -367.5q0 -31 -4 -129h-649q17 -166 99 -254t214 -88q136 0 240 113h96v-228q-166 -90 -379 -90q-257 0 -393.5 158.5t-136.5 452.5zM319 657l25 -24q108 31 207 31q130 0 229 -31l25 24q-44 166 -97 240t-147 74 t-147 -74t-95 -240zM348 1255v37q122 102 207 250h334v-55q-193 -84 -357 -232h-184z" />
<glyph unicode="&#xea;" horiz-adv-x="1081" d="M84 578q0 266 127 413.5t356 147.5q202 0 316 -128.5t114 -367.5q0 -31 -4 -129h-649q17 -166 99 -254t214 -88q136 0 240 113h96v-228q-166 -90 -379 -90q-257 0 -393.5 158.5t-136.5 452.5zM201 1255v58q46 26 95.5 85t90.5 144h307q34 -75 83 -135t104 -94v-58h-146 q-67 27 -104.5 72.5t-65.5 116.5h-49q-55 -143 -170 -189h-145zM319 657l25 -24q108 31 207 31q130 0 229 -31l25 24q-44 166 -97 240t-147 74t-147 -74t-95 -240z" />
<glyph unicode="&#xeb;" horiz-adv-x="1081" d="M84 578q0 266 127 413.5t356 147.5q202 0 316 -128.5t114 -367.5q0 -31 -4 -129h-649q17 -166 99 -254t214 -88q136 0 240 113h96v-228q-166 -90 -379 -90q-257 0 -393.5 158.5t-136.5 452.5zM233 1280v238h230q-8 -90 -8 -119t8 -119h-230zM319 657l25 -24 q108 31 207 31q130 0 229 -31l25 24q-44 166 -97 240t-147 74t-147 -74t-95 -240zM618 1280q9 77 9 119q0 13 -9 119h230v-238h-230z" />
<glyph unicode="&#xec;" horiz-adv-x="569" d="M-66 1487v55h334q82 -144 207 -250v-37h-184q-164 145 -357 232zM154 0v1075h256v-1075h-256z" />
<glyph unicode="&#xed;" horiz-adv-x="569" d="M92 1255v37q122 102 207 250h334v-55q-193 -84 -357 -232h-184zM154 0v1075h256v-1075h-256z" />
<glyph unicode="&#xee;" horiz-adv-x="569" d="M-55 1255v58q46 26 95.5 85t90.5 144h307q34 -75 83 -135t104 -94v-58h-146q-67 27 -104.5 72.5t-65.5 116.5h-49q-55 -143 -170 -189h-145zM154 0v1075h256v-1075h-256z" />
<glyph unicode="&#xef;" horiz-adv-x="569" d="M-23 1280v238h230q-8 -90 -8 -119t8 -119h-230zM154 0v1075h256v-1075h-256zM362 1280q9 76 9 119q0 13 -9 119h230v-238h-230z" />
<glyph unicode="&#xf0;" d="M86 555q0 278 120.5 431t317.5 153q65 0 114.5 -23t94.5 -92l45 29q-119 124 -129 223l-20 8q-9 -20 -69 -41t-189 -51l-99 -29l-49 142l109 26q146 39 203 33v31q-121 14 -207 147h325q19 -14 37 -47t10 -68l27 -20q23 33 55 51.5t97 42.5l180 66l63 -142l-104 -34 q-173 -51 -207 -54l-6 -18q93 -67 170.5 -266t77.5 -398q0 -332 -131 -508t-353 -176q-230 0 -356.5 151t-126.5 433zM342 555q0 -181 60 -278t167 -97q108 0 168 97t60 278q0 178 -61 276.5t-167 98.5q-105 0 -166 -98.5t-61 -276.5z" />
<glyph unicode="&#xf1;" d="M141 0v1104h256v-115l43 -8q67 78 122 109.5t136 31.5q61 0 108.5 -13.5t81.5 -37t58.5 -63.5t39.5 -84.5t23.5 -108.5t11.5 -127t3 -149v-539h-252v633q0 162 -41 228.5t-145 66.5q-100 0 -189 -105v-823h-256zM260 1274q26 116 79 179t120 63q32 0 65 -13.5t94 -49 t89 -50.5q40 55 55 121h115q-31 -124 -81.5 -184t-125.5 -60q-48 0 -104 28t-138 87q-37 -59 -51 -121h-117z" />
<glyph unicode="&#xf2;" d="M86 555q0 282 126.5 433t356.5 151t357 -151.5t127 -432.5q0 -282 -127 -433t-357 -151t-356.5 151t-126.5 433zM219 1487v55h334q82 -144 207 -250v-37h-185q-165 146 -356 232zM342 555q0 -181 60 -278t167 -97q108 0 168 97t60 278q0 178 -61 276.5t-167 98.5 q-105 0 -166 -98.5t-61 -276.5z" />
<glyph unicode="&#xf3;" d="M86 555q0 282 126.5 433t356.5 151t357 -151.5t127 -432.5q0 -282 -127 -433t-357 -151t-356.5 151t-126.5 433zM342 555q0 -181 60 -278t167 -97q108 0 168 97t60 278q0 178 -61 276.5t-167 98.5q-105 0 -166 -98.5t-61 -276.5zM377 1255v37q122 102 207 250h334v-55 q-193 -84 -357 -232h-184z" />
<glyph unicode="&#xf4;" d="M86 555q0 282 126.5 433t356.5 151t357 -151.5t127 -432.5q0 -282 -127 -433t-357 -151t-356.5 151t-126.5 433zM229 1255v58q47 26 96.5 85.5t90.5 143.5h307q72 -160 186 -229v-58h-145q-67 27 -104.5 72.5t-65.5 116.5h-49q-55 -143 -170 -189h-146zM342 555 q0 -181 60 -278t167 -97q108 0 168 97t60 278q0 178 -61 276.5t-167 98.5q-105 0 -166 -98.5t-61 -276.5z" />
<glyph unicode="&#xf5;" d="M86 555q0 282 126.5 433t356.5 151t357 -151.5t127 -432.5q0 -282 -127 -433t-357 -151t-356.5 151t-126.5 433zM260 1274q26 116 79 179t120 63q32 0 65 -13.5t94 -49t89 -50.5q40 55 55 121h115q-31 -124 -81.5 -184t-125.5 -60q-48 0 -104 28t-138 87 q-37 -59 -51 -121h-117zM342 555q0 -181 60 -278t167 -97q108 0 168 97t60 278q0 178 -61 276.5t-167 98.5q-105 0 -166 -98.5t-61 -276.5z" />
<glyph unicode="&#xf6;" d="M86 555q0 282 126.5 433t356.5 151t357 -151.5t127 -432.5q0 -282 -127 -433t-357 -151t-356.5 151t-126.5 433zM262 1280v238h230q-9 -101 -9 -119t9 -119h-230zM342 555q0 -181 60 -278t167 -97q108 0 168 97t60 278q0 178 -61 276.5t-167 98.5q-105 0 -166 -98.5 t-61 -276.5zM647 1280q8 68 8 119q0 25 -8 119h230v-238h-230z" />
<glyph unicode="&#xf7;" horiz-adv-x="1705" d="M336 412v213h1032v-213h-1032zM680 94q0 71 51.5 121.5t122.5 50.5q69 0 120.5 -51t51.5 -121q0 -66 -51.5 -120t-118.5 -54q-72 0 -124 51.5t-52 122.5zM680 942q0 72 51.5 123t122.5 51q69 0 120.5 -52t51.5 -122q0 -65 -51.5 -118.5t-118.5 -53.5q-72 0 -124 51 t-52 121z" />
<glyph unicode="&#xf8;" d="M0 113l61 61q5 5 16.5 17t16.5 16.5t13 11.5t15 10t15 4l10 21q-61 119 -61 301q0 282 126.5 433t356.5 151q110 0 179 -31t131 -88h26q3 29 62 88l26 31l129 -144l-28 -34q-66 -81 -101 -87l-10 -22q70 -86 70 -299q0 -281 -127 -431.5t-357 -152.5q-110 0 -178.5 30.5 t-134.5 88.5h-33q-2 -39 -59 -92l-27 -27zM332 471l22 -16q2 9 6.5 16.5t18.5 21.5t29.5 28.5t50.5 48.5t71 69l201 201v26q-8 3 -34.5 21.5t-58 30.5t-69.5 12q-113 0 -170 -92t-57 -260q0 -51 -10 -107zM399 252q82 -72 181 -72q106 0 161.5 91.5t55.5 254.5q0 59 12 113 l-23 25q-15 -30 -47 -62l-241 -244q-54 -57 -99 -71v-35z" />
<glyph unicode="&#xf9;" d="M115 520v584h250v-660q0 -148 46.5 -209t141.5 -61q50 0 101.5 31t84.5 78v821h256v-1104h-256v113l-43 8q-65 -78 -121 -109.5t-137 -31.5q-203 0 -280 174q-28 61 -35.5 142.5t-7.5 223.5zM219 1487v55h334q82 -144 207 -250v-37h-185q-165 146 -356 232z" />
<glyph unicode="&#xfa;" d="M115 520v584h250v-660q0 -148 46.5 -209t141.5 -61q50 0 101.5 31t84.5 78v821h256v-1104h-256v113l-43 8q-65 -78 -121 -109.5t-137 -31.5q-203 0 -280 174q-28 61 -35.5 142.5t-7.5 223.5zM377 1255v37q122 102 207 250h334v-55q-193 -84 -357 -232h-184z" />
<glyph unicode="&#xfb;" d="M115 520v584h250v-660q0 -148 46.5 -209t141.5 -61q50 0 101.5 31t84.5 78v821h256v-1104h-256v113l-43 8q-65 -78 -121 -109.5t-137 -31.5q-203 0 -280 174q-28 61 -35.5 142.5t-7.5 223.5zM229 1255v58q47 26 96.5 85.5t90.5 143.5h307q72 -160 186 -229v-58h-145 q-67 27 -104.5 72.5t-65.5 116.5h-49q-55 -143 -170 -189h-146z" />
<glyph unicode="&#xfc;" d="M115 520v584h250v-660q0 -148 46.5 -209t141.5 -61q50 0 101.5 31t84.5 78v821h256v-1104h-256v113l-43 8q-65 -78 -121 -109.5t-137 -31.5q-203 0 -280 174q-28 61 -35.5 142.5t-7.5 223.5zM262 1280v238h230q-9 -101 -9 -119t9 -119h-230zM647 1280q8 68 8 119 q0 25 -8 119h230v-238h-230z" />
<glyph unicode="&#xfd;" horiz-adv-x="937" d="M35 1104h291l139 -899h47l160 899h246l-336 -1112q-23 -76 -40.5 -120.5t-47 -90.5t-66.5 -69.5t-94.5 -38.5t-136.5 -15h-138v209h148q69 0 103.5 34t56.5 122zM276 1255v37q122 102 207 250h334v-55q-192 -83 -356 -232h-185z" />
<glyph unicode="&#xfe;" d="M141 -342v1884h256v-553l25 -8q104 143 248 143q171 0 277 -154t106 -421q0 -273 -103.5 -427.5t-277.5 -154.5q-154 0 -252 146l-23 -4v-451h-256zM397 270q42 -104 166 -104q230 0 230 385q0 180 -59.5 277.5t-164.5 97.5q-115 0 -172 -103v-553z" />
<glyph unicode="&#xff;" horiz-adv-x="937" d="M35 1104h291l139 -899h47l160 899h246l-336 -1112q-23 -76 -40.5 -120.5t-47 -90.5t-66.5 -69.5t-94.5 -38.5t-136.5 -15h-138v209h148q69 0 103.5 34t56.5 122zM162 1280v238h229q-8 -90 -8 -119t8 -119h-229zM547 1280q8 68 8 119q0 25 -8 119h229v-238h-229z" />
<glyph unicode="&#x152;" horiz-adv-x="1855" d="M86 780q0 366 157.5 564t440.5 198q159 0 277 -65v41h761v-240h-477v-369h412v-217h-412v-456h496v-236h-780v39q-116 -64 -277 -64q-291 0 -444.5 204.5t-153.5 600.5zM377 758q0 -264 79 -406.5t240 -142.5q62 0 133.5 30t131.5 87v864q-60 57 -132.5 87t-132.5 30 q-161 0 -240 -142.5t-79 -406.5z" />
<glyph unicode="&#x153;" horiz-adv-x="1794" d="M86 555q0 282 126.5 433t356.5 151q225 0 355 -148q130 148 356 148q202 0 316 -128.5t114 -367.5q0 -31 -4 -129h-649q17 -166 99 -254t214 -88q136 0 240 113h96v-228q-166 -90 -379 -90q-261 0 -395 162q-128 -162 -363 -162q-230 0 -356.5 152.5t-126.5 435.5z M342 555q0 -181 60 -278t167 -97q108 0 168 97t60 278q0 178 -61 276.5t-167 98.5q-105 0 -166 -98.5t-61 -276.5zM1040 657l17 -24q109 31 207 31q130 0 229 -31l25 24q-44 166 -97 240t-147 74q-91 0 -144.5 -73t-89.5 -241z" />
<glyph unicode="&#x178;" horiz-adv-x="1222" d="M43 1518h303l172 -469q56 -149 82 -287h43q23 126 86 295l174 461h277l-422 -936v-582h-285v582zM305 1622v238h230q-9 -101 -9 -119t9 -119h-230zM690 1622q8 68 8 119q0 25 -8 119h230v-238h-230z" />
<glyph unicode="&#x2c6;" horiz-adv-x="1024" d="M172 1255v58q46 26 95.5 85t90.5 144h308q72 -160 186 -229v-58h-145q-67 27 -104.5 72.5t-65.5 116.5h-50q-55 -143 -170 -189h-145z" />
<glyph unicode="&#x2dc;" horiz-adv-x="1024" d="M203 1274q26 117 78.5 179.5t119.5 62.5q32 0 65 -13.5t94 -49t89 -50.5q42 57 56 121h114q-31 -124 -81.5 -184t-125.5 -60q-48 0 -103.5 28t-137.5 87q-38 -61 -52 -121h-116z" />
<glyph unicode="&#x2000;" horiz-adv-x="1022" />
<glyph unicode="&#x2001;" horiz-adv-x="2044" />
<glyph unicode="&#x2002;" horiz-adv-x="1022" />
<glyph unicode="&#x2003;" horiz-adv-x="2044" />
<glyph unicode="&#x2004;" horiz-adv-x="681" />
<glyph unicode="&#x2005;" horiz-adv-x="511" />
<glyph unicode="&#x2006;" horiz-adv-x="340" />
<glyph unicode="&#x2007;" horiz-adv-x="340" />
<glyph unicode="&#x2008;" horiz-adv-x="255" />
<glyph unicode="&#x2009;" horiz-adv-x="408" />
<glyph unicode="&#x200a;" horiz-adv-x="113" />
<glyph unicode="&#x2010;" horiz-adv-x="1024" d="M199 649v228h626v-228h-626z" />
<glyph unicode="&#x2011;" horiz-adv-x="1024" d="M199 649v228h626v-228h-626z" />
<glyph unicode="&#x2012;" horiz-adv-x="1024" d="M199 649v228h626v-228h-626z" />
<glyph unicode="&#x2013;" horiz-adv-x="1024" d="M0 649v228h1024v-228h-1024z" />
<glyph unicode="&#x2014;" horiz-adv-x="2048" d="M0 649v228h2048v-228h-2048z" />
<glyph unicode="&#x2018;" horiz-adv-x="569" d="M113 1231v287h338v-306h-164v-59q0 -187 164 -190v-119q-6 0 -17.5 -1t-17.5 -1q-147 0 -225 99.5t-78 289.5z" />
<glyph unicode="&#x2019;" horiz-adv-x="569" d="M115 1210v308h340v-287q0 -190 -77.5 -287.5t-225.5 -97.5h-27v117q77 3 117.5 52t40.5 140v55h-168z" />
<glyph unicode="&#x201a;" horiz-adv-x="569" d="M115 27v307h340v-287q0 -190 -77.5 -287.5t-225.5 -97.5h-27v117q77 3 117.5 52t40.5 140v56h-168z" />
<glyph unicode="&#x201c;" d="M113 1231v287h338v-306h-164v-59q0 -187 164 -190v-119q-6 0 -17.5 -1t-17.5 -1q-147 0 -225 99.5t-78 289.5zM682 1231v287h338v-306h-164v-59q0 -187 164 -190v-119q-6 0 -17.5 -1t-17.5 -1q-147 0 -225 99.5t-78 289.5z" />
<glyph unicode="&#x201d;" d="M115 1210v308h340v-287q0 -190 -77.5 -287.5t-225.5 -97.5h-27v117q77 3 117.5 52t40.5 140v55h-168zM684 1210v308h340v-287q0 -190 -77.5 -287.5t-225.5 -97.5h-27v117q77 3 117.5 52t40.5 140v55h-168z" />
<glyph unicode="&#x201e;" d="M115 27v307h340v-287q0 -190 -77.5 -287.5t-225.5 -97.5h-27v117q77 3 117.5 52t40.5 140v56h-168zM684 27v307h340v-287q0 -190 -77.5 -287.5t-225.5 -97.5h-27v117q77 3 117.5 52t40.5 140v56h-168z" />
<glyph unicode="&#x2022;" horiz-adv-x="1208" d="M256 717q-2 145 100 246.5t248 101.5q145 0 246.5 -101.5t101.5 -246.5t-101.5 -246.5t-246.5 -101.5t-246.5 101t-101.5 247z" />
<glyph unicode="&#x2026;" horiz-adv-x="2048" d="M172 0v334h340v-334h-340zM854 0v334h340v-334h-340zM1536 0v334h340v-334h-340z" />
<glyph unicode="&#x202f;" horiz-adv-x="408" />
<glyph unicode="&#x2039;" horiz-adv-x="681" d="M47 573l258 320h256l-256 -320l264 -315h-258z" />
<glyph unicode="&#x203a;" horiz-adv-x="681" d="M49 893h256l264 -320l-254 -315h-258l256 315z" />
<glyph unicode="&#x205f;" horiz-adv-x="511" />
<glyph unicode="&#x2122;" horiz-adv-x="1705" d="M20 1333v185h644v-185h-220v-659h-204v659h-220zM825 674v844h299l183 -490l182 490h319v-844h-221v553h-24l-166 -553h-180l-166 553h-25v-553h-201z" />
<glyph unicode="&#xe000;" horiz-adv-x="1105" d="M0 0v1106h1106v-1106h-1106z" />
<glyph unicode="&#xfb01;" horiz-adv-x="1251" d="M45 903v172h148v119q0 183 68.5 265.5t227.5 82.5h183v-194h-88q-92 0 -127 -17t-45 -74q-1 -3 -4 -67t-17 -115l27 -20q41 20 100 20h154v-172h-223v-903h-256v903h-148zM815 1331v211h303v-211h-303zM836 0v1075h256v-1075h-256z" />
<glyph unicode="&#xfb02;" horiz-adv-x="1251" d="M45 903v172h148v119q0 183 68.5 265.5t227.5 82.5h183v-194h-88q-92 0 -127 -17t-45 -74q-1 -3 -4 -67t-17 -115l27 -20q41 20 100 20h154v-172h-223v-903h-256v903h-148zM838 0v1542h256v-1542h-256z" />
</font>
</defs>
</svg>
