<?xml version="1.0" standalone="no"?>
<!DOCTYPE svg PUBLIC "-//W3C//DTD SVG 1.1//EN" "http://www.w3.org/Graphics/SVG/1.1/DTD/svg11.dtd" >
<svg xmlns="http://www.w3.org/2000/svg">
<metadata></metadata>
<defs>
<font id="bell_centennialbold_listing" horiz-adv-x="1366" >
<font-face units-per-em="2048" ascent="1511" descent="-537" />
<missing-glyph horiz-adv-x="681" />
<glyph horiz-adv-x="2048" />
<glyph horiz-adv-x="2048" />
<glyph unicode="&#xd;" horiz-adv-x="2048" />
<glyph unicode=" "  horiz-adv-x="681" />
<glyph unicode="&#x09;" horiz-adv-x="681" />
<glyph unicode="&#xa0;" horiz-adv-x="681" />
<glyph unicode="!" horiz-adv-x="681" d="M127 152h428v-408h-428v408zM129 1479h428l-100 -1164h-234z" />
<glyph unicode="&#x22;" horiz-adv-x="712" d="M8 690v789h307v-789h-307zM436 690v789h307v-789h-307z" />
<glyph unicode="#" horiz-adv-x="1574" d="M23 381l86 231h270l82 230h-283l86 229h279l141 395h250l-139 -395h235l141 395h250l-139 -395h270l-86 -229h-268l-80 -230h277l-84 -231h-275l-141 -393h-250l139 393h-235l-141 -393h-250l139 393h-274zM625 610h245l82 232h-245z" />
<glyph unicode="$" d="M106 -160v418h140q42 -103 112.5 -160t190.5 -90v471q-219 60 -331 182.5t-112 301.5q0 199 136 334t372 159v135h168v-137q191 -20 385 -86v-391h-133q-35 88 -89 145t-138 95v-488q219 -55 333.5 -179t114.5 -302q0 -203 -136.5 -341t-370.5 -161v-168h-170v170 q-249 15 -472 92zM434 1004q0 -153 189 -271l41 41q-27 78 -27 195q0 142 27 241l-41 45q-189 -95 -189 -251zM696 436q29 -88 29 -196q0 -138 -27 -240l39 -47q189 94 189 254q0 147 -189 268z" />
<glyph unicode="%" horiz-adv-x="2048" d="M109 946q0 267 106.5 407t302.5 140q208 0 316 -137.5t108 -405.5q0 -266 -105.5 -403t-306.5 -137q-207 0 -314 135.5t-107 400.5zM264 -193l631 627l70 -67l-301 -611h-400v51zM389 946q0 -190 25.5 -266t109.5 -76q32 0 55 9t38 31t24 47.5t13.5 70.5t6 87t1.5 109 q0 62 -1.5 103.5t-6.5 83.5t-14 67.5t-24 46.5t-37.5 30t-52.5 9t-52 -8.5t-37 -29t-24.5 -46.5t-14.5 -69t-7 -88t-2 -111zM1083 856l301 608h398v-49l-631 -629zM1106 270q0 266 105 404.5t305 138.5q207 0 315 -137t108 -402q0 -266 -107 -406t-304 -140 q-209 0 -315.5 136.5t-106.5 405.5zM1386 264q0 -63 1.5 -103.5t6 -83.5t13.5 -68.5t23.5 -47t37 -30.5t52.5 -9q86 0 112.5 77.5t26.5 274.5q0 79 -2.5 128t-10.5 94.5t-23 69t-40.5 37t-62.5 13.5q-27 0 -47 -8t-34 -21t-24 -37.5t-15.5 -49.5t-8.5 -65.5t-4 -77.5t-1 -93 z" />
<glyph unicode="&#x26;" horiz-adv-x="1622" d="M68 223q0 153 81 269.5t234 177.5v30q-190 199 -190 390q0 181 140 296t378 115q212 0 344.5 -115.5t132.5 -291.5q0 -149 -98.5 -262t-284.5 -173v-22q221 -173 350 -404l53 5q-22 153 -22 317q0 65 2 98h360q0 -185 -64 -317t-204 -234l322 -286v-72h-404l-154 158 q-103 -97 -208.5 -144t-227.5 -47q-231 0 -385.5 148.5t-154.5 363.5zM416 340q0 -154 98.5 -258.5t237.5 -104.5q93 0 215 52l4 20q-256 216 -467 498h-25q-63 -114 -63 -207zM535 1090q0 -175 172 -353q68 73 104.5 163t36.5 175q0 87 -46 143t-108 56q-68 0 -113.5 -52.5 t-45.5 -131.5z" />
<glyph unicode="'" horiz-adv-x="370" d="M33 690v789h307v-789h-307z" />
<glyph unicode="(" horiz-adv-x="1327" d="M295 588q0 294 117.5 514t371.5 405h375v-118q-232 -93 -338 -283.5t-106 -505.5q0 -322 105 -512t339 -283v-118h-375q-255 188 -372 403t-117 498z" />
<glyph unicode=")" horiz-adv-x="1327" d="M168 -195q232 93 338 284t106 507q0 322 -104.5 511t-339.5 282v118h375q255 -188 372 -403t117 -498q0 -293 -117.5 -513.5t-371.5 -405.5h-375v118z" />
<glyph unicode="*" horiz-adv-x="1345" d="M129 971l76 262l397 -197l12 6l-84 437h281l-74 -435l11 -10l387 195l82 -256l-420 -49l-9 -15l316 -325l-227 -150l-195 434h-16l-201 -442l-223 158l319 327l-6 13z" />
<glyph unicode="+" horiz-adv-x="1705" d="M336 444v246h393v395h246v-395h393v-246h-393v-395h-246v395h-393z" />
<glyph unicode="," horiz-adv-x="681" d="M129 -57v393h424v-393q0 -217 -78.5 -307.5t-281.5 -90.5q-16 0 -37.5 1t-26.5 1v148q14 -2 39 -2q75 0 101 43t26 149v58h-166z" />
<glyph unicode="-" d="M164 446v340h1038v-340h-1038z" />
<glyph unicode="." horiz-adv-x="681" d="M127 227h428v-483h-428v483z" />
<glyph unicode="/" horiz-adv-x="681" d="M-129 -285l719 1764h227l-719 -1764h-227z" />
<glyph unicode="0" d="M102 612q0 446 146 670.5t432 224.5q584 0 584 -895q0 -897 -582 -897q-580 0 -580 897zM492 612q0 -329 39 -467.5t151 -138.5q41 0 71.5 16t52 52.5t35 85t21 125.5t10 161.5t2.5 204.5q0 301 -41.5 433.5t-148.5 132.5q-48 0 -82 -24t-55.5 -68.5t-33.5 -121.5 t-16.5 -168t-4.5 -223z" />
<glyph unicode="1" d="M152 10h159q118 0 246 -26l18 28q-22 32 -33 83.5t-12.5 95t-1.5 135.5v614q0 181 54 299l-19 29q-149 -33 -299 -33h-98v244h764v-1162q0 -125 -11 -194.5t-49 -116.5l33 -29q119 33 258 33h131v-266h-1140v266z" />
<glyph unicode="2" d="M100 -178q0 202 82 344t264 289q24 19 71 57t69.5 56t61 51t57 54t46.5 53t41.5 58t28 59.5t20 69t5.5 74.5q0 114 -45.5 173t-132.5 59q-93 0 -128.5 -73.5t-35.5 -244.5v-18h-398q-2 23 -2 65q0 263 153.5 409t428.5 146q125 0 232 -41t180.5 -113t115 -172t41.5 -216 q0 -290 -264 -515q-52 -44 -246 -173t-325 -238l49 -51q75 49 151 63t185 14h467v-317h-1170q-2 27 -2 78z" />
<glyph unicode="3" d="M109 -160v400h139q42 -106 132.5 -167t197.5 -61q115 0 189.5 73.5t74.5 186.5q0 130 -82 188t-262 58h-41v289h45q315 0 315 205q0 94 -64.5 153.5t-164.5 59.5q-111 0 -180 -51.5t-121 -169.5h-144v393q256 106 516 106q155 0 262 -37t181 -120q112 -124 112 -281 q0 -134 -92.5 -228t-267.5 -132v-41q189 -34 289 -144.5t100 -283.5q0 -237 -168.5 -377t-466.5 -140q-142 0 -260 26.5t-239 94.5z" />
<glyph unicode="4" d="M51 143v365l578 971h506v-772q0 -83 -9.5 -134.5t-44.5 -97.5l31 -37q95 18 162 23v-326q-64 0 -129 27l-15 -10v-408h-397v205q0 126 53 194l-28 25q-60 -25 -162 -25h-545zM289 477l18 -37q125 25 299 25q104 0 187 -23l26 37q-47 64 -47 232q0 228 53 575h-84 q-22 -152 -104 -293l-162 -278q-30 -52 -43.5 -74.5t-38.5 -59.5t-50 -61t-54 -43z" />
<glyph unicode="5" d="M121 -162v361h141q90 -193 275 -193q124 0 206 85t82 216q0 117 -71 189.5t-185 72.5q-81 0 -192 -49h-195v959h1010v-320h-514q-126 0 -205 35l-39 -35q55 -55 55 -172q0 -52 -10 -86t-41 -65l35 -35q114 57 232 57q229 0 376.5 -155t147.5 -402q0 -262 -173 -424 t-456 -162q-208 0 -479 123z" />
<glyph unicode="6" d="M84 387q0 305 149 584.5t435 507.5h489v-80q-428 -262 -672 -553l33 -39q145 86 281 86q212 0 343.5 -147t131.5 -396q0 -286 -168.5 -460.5t-441.5 -174.5q-263 0 -421.5 179.5t-158.5 492.5zM453 319q0 -137 64.5 -219t166.5 -82q88 0 138 84t50 242q0 322 -194 322 q-106 0 -165.5 -89.5t-59.5 -257.5z" />
<glyph unicode="7" d="M121 -256l588 1159q73 146 174 221l-21 43q-43 -11 -105 -16t-102.5 -5.5t-136.5 -0.5h-395v334h1165v-260l-749 -1475h-418z" />
<glyph unicode="8" d="M63 195q0 140 77.5 241t236.5 172v33q-273 169 -273 418q0 195 157 321.5t413 126.5q260 0 419.5 -118t159.5 -304q0 -131 -67 -224t-207 -161v-43q148 -72 226.5 -191t78.5 -269q0 -217 -163.5 -349.5t-442.5 -132.5q-141 0 -257.5 37t-194.5 101.5t-120.5 152.5 t-42.5 189zM436 266q0 -124 68.5 -202t171.5 -78q89 0 149 59t60 145t-63 170t-206 213h-49q-131 -158 -131 -307zM498 1075q0 -174 254 -323h41q96 134 96 256q0 114 -58 180.5t-155 66.5q-79 0 -128.5 -50t-49.5 -130z" />
<glyph unicode="9" d="M82 874q0 285 168 459t442 174q263 0 421.5 -179t158.5 -492q0 -306 -148 -584.5t-436 -507.5h-489v82q425 260 671 551l-32 39q-145 -86 -283 -86q-212 0 -342.5 147.5t-130.5 396.5zM483 879q0 -159 49.5 -240.5t145.5 -81.5q106 0 165.5 89.5t59.5 254.5 q0 135 -63.5 218t-161.5 83q-93 0 -144 -82.5t-51 -240.5z" />
<glyph unicode=":" horiz-adv-x="681" d="M127 227h428v-483h-428v483zM127 559v483h428v-483h-428z" />
<glyph unicode=";" horiz-adv-x="681" d="M127 559v483h428v-483h-428zM129 -57v393h424v-393q0 -217 -78.5 -307.5t-281.5 -90.5q-16 0 -37.5 1t-26.5 1v148q14 -2 39 -2q75 0 101 43t26 149v58h-166z" />
<glyph unicode="&#x3c;" horiz-adv-x="1705" d="M332 471v193l1040 438v-236l-721 -299l721 -299v-235z" />
<glyph unicode="=" horiz-adv-x="1705" d="M336 215v246h1032v-246h-1032zM336 674v246h1032v-246h-1032z" />
<glyph unicode="&#x3e;" horiz-adv-x="1705" d="M332 33v235l721 299l-721 299v236l1040 -438v-193z" />
<glyph unicode="?" d="M111 995q0 249 143.5 380.5t417.5 131.5q273 0 428 -126.5t155 -338.5q0 -122 -53.5 -228t-165.5 -210q-14 -13 -49 -44.5t-47.5 -43t-35.5 -37.5t-31.5 -43t-16.5 -42t-8 -52v-25h-340v35q0 57 1.5 86.5t8.5 67t22 64.5t40.5 60.5t66.5 74.5q19 19 57 55t54 52.5 t41 46.5t35.5 52.5t19 54t8.5 66.5q0 97 -49.5 150t-140.5 53q-85 0 -134 -63t-46 -195v-57h-377zM461 152h428v-408h-428v408z" />
<glyph unicode="@" horiz-adv-x="2048" d="M82 520q0 342 209 598q148 182 359 277.5t468 95.5q173 0 323 -47t257 -131q270 -212 270 -549q0 -167 -65.5 -307t-190.5 -240q-142 -115 -330 -115q-212 0 -221 160q-57 -83 -127.5 -120.5t-167.5 -37.5q-163 0 -247 87.5t-84 257.5q0 161 66 291.5t178 203t247 72.5 q152 0 229 -123l52 92h206l-153 -610q-4 -24 -4 -33q0 -59 63 -59q89 0 168.5 65.5t127.5 176.5t48 237q0 237 -178.5 389t-468.5 152q-296 0 -504 -146q-155 -110 -239 -274.5t-84 -356.5q0 -302 203 -481.5t544 -179.5q336 0 596 186l97 -135q-309 -233 -693 -233 q-389 0 -643 194q-311 241 -311 643zM778 444q0 -84 35 -129t98 -45q83 0 147 58.5t89 158.5l51 209q-9 76 -50.5 116t-109.5 40q-102 0 -181 -121.5t-79 -286.5z" />
<glyph unicode="A" horiz-adv-x="1394" d="M14 -256l447 1735h543l374 -1735h-391l-43 190q-7 31 -7 64q0 45 13 92l-24 23q-102 -31 -230 -31q-94 0 -140.5 5.5t-100.5 25.5l-23 -19q8 -60 8 -105t-8 -77l-43 -168h-375zM489 358l25 -34q81 22 191 22q102 0 174 -22l24 34q-52 110 -96 350t-64 578h-77 q-60 -678 -177 -928z" />
<glyph unicode="B" horiz-adv-x="1394" d="M141 -256v1735h502q150 0 244.5 -10.5t167.5 -45.5q92 -45 148.5 -140t56.5 -208q0 -153 -93 -255t-256 -122v-47q396 -18 396 -407q0 -152 -68 -268.5t-180 -170.5q-77 -36 -184.5 -48.5t-290.5 -12.5h-443zM475 51l39 -39q174 15 224 26q118 27 155 106q22 47 22 118 q0 63 -21.5 110t-55 71.5t-59 35.5t-48.5 15q-22 4 -62.5 9t-77 11.5t-77.5 17.5l-39 -38q64 -77 64 -185v-61q0 -59 -14 -104.5t-50 -92.5zM475 780l39 -39q54 19 130.5 27t86.5 10q65 15 107.5 67.5t42.5 145.5q0 82 -38.5 126t-90.5 59q-30 7 -78.5 9.5t-79.5 8.5 q-64 11 -80 20l-39 -38q64 -89 64 -168v-62q0 -77 -64 -166z" />
<glyph unicode="C" horiz-adv-x="1337" d="M90 612q0 436 182.5 665.5t515.5 229.5q231 0 463 -149v-395h-129q-116 223 -284 223q-153 0 -236.5 -148t-83.5 -432q0 -276 84 -421.5t234 -145.5q170 0 286 223h129v-395q-121 -79 -235.5 -115.5t-245.5 -36.5q-317 0 -498.5 232.5t-181.5 664.5z" />
<glyph unicode="D" horiz-adv-x="1478" d="M141 -256v1735h430q196 0 329.5 -32t227.5 -112q129 -107 198 -287.5t69 -420.5q0 -246 -55.5 -421t-174.5 -292q-56 -55 -117.5 -89.5t-137 -52t-148 -23t-178.5 -5.5h-443zM475 51l39 -39q38 15 98 18.5t115 12t96 37.5q23 17 35 27t35 42t35 70.5t22.5 107t10.5 156.5 v123q0 120 -2.5 184t-13.5 137.5t-35.5 119t-65.5 79.5q-39 32 -102 45.5t-130 19.5t-98 17l-39 -37q30 -38 44.5 -79t17 -70t2.5 -82v-659q0 -53 -2.5 -82t-17 -70t-44.5 -78z" />
<glyph unicode="E" horiz-adv-x="1251" d="M141 -256v1735h998v-281h-391q-152 0 -234 29l-39 -37q64 -85 64 -174v-66q0 -77 -64 -166l39 -39q100 31 234 31h366v-295h-366q-151 0 -234 31l-39 -39q64 -83 64 -186v-74q0 -87 -64 -172l39 -37q88 29 234 29h419v-289h-1026z" />
<glyph unicode="F" horiz-adv-x="1165" d="M141 -256v1735h998v-285h-391q-142 0 -234 31l-39 -39q64 -85 64 -174v-64q0 -79 -64 -168l39 -37q97 31 234 31h366v-295h-366q-150 0 -234 29l-39 -37q64 -83 64 -188v-539h-398z" />
<glyph unicode="G" horiz-adv-x="1478" d="M92 598q0 446 188.5 677.5t544.5 231.5q250 0 516 -145v-387h-122q-147 225 -359 225q-181 0 -260.5 -151t-79.5 -476q0 -278 75.5 -414t231.5 -136q52 0 144 32v195q0 111 28 176l-26 31q-105 -51 -228 -51h-26v280h622v-942h-340v147h-55q-145 -176 -323 -176 q-87 0 -174 44.5t-158 129.5q-199 237 -199 709z" />
<glyph unicode="H" horiz-adv-x="1507" d="M141 -256v1735h400v-500q0 -71 -11 -118t-51 -97l37 -39q102 31 234 31q149 0 241 -31l39 39q-30 38 -44.5 79.5t-16.5 69t-2 80.5v486h399v-1735h-399v483q0 54 2 82t16.5 69t44.5 79l-39 39q-92 -31 -237 -31q-152 0 -238 31l-37 -39q29 -38 43 -79t16.5 -69.5 t2.5 -81.5v-483h-400z" />
<glyph unicode="I" horiz-adv-x="768" d="M184 -256v1735h400v-1735h-400z" />
<glyph unicode="J" horiz-adv-x="1308" d="M98 375v256h373v-328q0 -60 2.5 -99t11 -78.5t24.5 -61.5t44 -36t68 -14t68 8.5t46 33.5t28 48t14.5 75t5.5 89t1 115v1096h394v-1145q0 -322 -128.5 -470.5t-424.5 -148.5q-179 0 -308 74t-174 197q-28 79 -36.5 168.5t-8.5 220.5z" />
<glyph unicode="K" horiz-adv-x="1449" d="M145 -256v1735h398v-416q0 -257 -37 -500l63 -16q22 90 63.5 183.5t110.5 227.5l269 521h432l-283 -518q-88 -159 -200 -246v-31q37 -25 69 -67.5t50 -78t51 -108.5q2 -5 3.5 -7.5t3 -7t3.5 -7.5l307 -664h-436l-254 571q-56 129 -66 226h-41l-125 -260q1 -5 5 -20t6 -25 t4 -28t2 -38v-426h-398z" />
<glyph unicode="L" horiz-adv-x="1138" d="M141 -256v1735h398v-1225q0 -85 -15.5 -128t-48.5 -85l39 -37q88 29 234 29h362v-289h-969z" />
<glyph unicode="M" horiz-adv-x="1906" d="M156 -256v1735h530l141 -582q69 -285 72 -721h113v27q0 367 84 715l137 561h518v-1735h-328v872q0 174 50 551h-109q-3 -106 -20.5 -222.5t-36 -195t-50.5 -200.5l-210 -805h-218l-247 1016q-48 193 -54 407h-108q43 -276 43 -518v-905h-307z" />
<glyph unicode="N" horiz-adv-x="1564" d="M141 -256v1735h453l276 -574q74 -155 125 -356t58 -402h110q-73 535 -73 871v461h331v-1735h-391l-368 754q-146 299 -152 620h-111q74 -467 74 -854v-520h-332z" />
<glyph unicode="O" horiz-adv-x="1478" d="M86 614q0 445 163 669t486 224q327 0 492.5 -224t165.5 -669q0 -899 -654 -899q-653 0 -653 899zM512 612q0 -132 6 -224.5t20.5 -168.5t40 -121t64.5 -68.5t94 -23.5q58 0 98 24.5t65.5 70.5t40 128t19.5 179t5 241q0 305 -48.5 436.5t-175.5 131.5q-47 0 -82.5 -15.5 t-61 -49.5t-42 -81t-26 -118t-13.5 -151.5t-4 -189.5z" />
<glyph unicode="P" horiz-adv-x="1394" d="M141 -256v1735h512q163 0 267 -15t184 -63q113 -68 175 -189t62 -276q0 -274 -157.5 -427t-435.5 -153q-31 0 -64.5 5t-52.5 9.5t-59.5 16t-53.5 14.5l-33 -41q35 -47 44.5 -107.5t9.5 -168.5v-340h-398zM483 659l29 -43q38 9 123.5 18t128.5 23q68 21 111 92.5t43 172.5 q0 118 -62 187t-162 83q-120 15 -174 35l-33 -39q22 -29 36 -86t14 -117v-80q0 -90 -9.5 -144t-44.5 -102z" />
<glyph unicode="Q" horiz-adv-x="1449" d="M86 614q0 445 163 669t486 224q327 0 492.5 -224t165.5 -669q0 -326 -138 -618l242 -232l-225 -231l-252 264q-152 -82 -311 -82q-303 0 -463 227.5t-160 671.5zM512 532q0 -317 63.5 -462.5t223.5 -145.5q17 0 96 17v30q-33 8 -61 30.5t-70 66.5l-160 168l154 153 l102 -106q39 -41 62 -78.5t34 -91.5l35 10q-26 110 -26 330v159q0 132 -5.5 224.5t-20 168.5t-40 120.5t-64.5 68t-94 23.5q-51 0 -88 -17t-62.5 -57.5t-41 -91t-24 -134.5t-11 -170t-2.5 -215z" />
<glyph unicode="R" horiz-adv-x="1478" d="M141 -256v1735h512q162 0 265.5 -15t185.5 -63q109 -64 166 -171t57 -245q0 -168 -76 -268.5t-207 -124.5l-8 -47l432 -801h-462l-318 709q-89 0 -170 34l-33 -38q26 -33 39 -83t15 -93.5t2 -129.5v-399h-400zM449 705l32 -37q50 9 152.5 15.5t150.5 18.5 q73 19 119.5 82.5t46.5 147.5q0 85 -41 145t-118 88q-39 14 -140.5 20.5t-161.5 24.5l-36 -34q23 -23 38 -74t15 -103v-84q0 -76 -10.5 -123t-46.5 -87z" />
<glyph unicode="S" horiz-adv-x="1337" d="M92 -166l14 432h119q56 -121 156.5 -189.5t212.5 -68.5q102 0 166.5 56t64.5 137q0 37 -10 67.5t-31.5 55.5t-44.5 44t-59.5 38t-65 32t-73 33t-72.5 33q-371 181 -371 502q0 228 156.5 364.5t437.5 136.5q205 0 447 -96v-414h-129q-57 112 -140 172t-168 60 q-95 0 -154 -50t-59 -124q0 -35 11.5 -65.5t38 -58.5t53.5 -49.5t76.5 -48t86 -44.5t103.5 -50t109 -53q45 -22 88.5 -60t84.5 -91.5t66 -127t25 -153.5q0 -112 -45 -210.5t-125.5 -171.5t-201 -115t-263.5 -42q-225 0 -504 119z" />
<glyph unicode="T" horiz-adv-x="1251" d="M27 1169v310h1198v-310h-195q-151 0 -233 29l-37 -37q61 -81 61 -174v-1243h-393v1243q0 93 61 174l-36 37q-86 -29 -234 -29h-192z" />
<glyph unicode="U" horiz-adv-x="1507" d="M141 371v1108h400v-1135q0 -175 48 -256.5t161 -81.5q120 0 168.5 86t48.5 264v1123h397v-1162q0 -322 -141 -462t-469 -140q-221 0 -357 64t-200 203q-34 75 -45 165.5t-11 223.5z" />
<glyph unicode="V" horiz-adv-x="1394" d="M16 1479h398l147 -596q105 -418 111 -832h76q2 56 5 110.5t9.5 110t11 98t14.5 100.5t15 88t17.5 91t16 79.5t17.5 82t16 72.5l129 596h377l-487 -1735h-383z" />
<glyph unicode="W" horiz-adv-x="2048" d="M27 1479h389l63 -451q76 -545 82 -905h103q1 187 30.5 395.5t85.5 501.5l88 459h334l84 -426q105 -534 127 -930h100q3 438 78 907l72 449h358l-350 -1735h-395l-111 608q-82 455 -86 795h-106v-19q0 -307 -92 -786l-117 -598h-387z" />
<glyph unicode="X" horiz-adv-x="1449" d="M43 -256l406 868l-400 867h445l241 -709h62l190 709h420l-399 -865l397 -870h-440l-228 707h-59l-223 -707h-412z" />
<glyph unicode="Y" horiz-adv-x="1394" d="M12 1479h422l82 -203q71 -176 110.5 -329.5t45.5 -311.5h78q8 158 48.5 306.5t110.5 328.5l80 209h393l-493 -1067v-668h-387v668z" />
<glyph unicode="Z" horiz-adv-x="1222" d="M72 -18l438 870q1 2 12.5 26.5t18 36t20.5 39t27.5 50t32 52.5t40 62.5t46.5 65.5l-23 47q-161 -31 -350 -31h-225v279h1042v-201l-457 -901q-3 -7 -19 -38t-20.5 -39.5t-18.5 -36t-20 -38.5t-19 -34t-22 -36.5t-21 -32.5t-24 -34.5t-24 -30.5l31 -45q148 23 372 23h240 v-291h-1077v238z" />
<glyph unicode="[" horiz-adv-x="1024" d="M199 -426v1905h702v-242h-332v-1413h291v-250h-661z" />
<glyph unicode="\" horiz-adv-x="681" d="M-135 1479h227l719 -1764h-227z" />
<glyph unicode="]" horiz-adv-x="1024" d="M131 -176h324v1413h-324v242h694v-1905h-694v250z" />
<glyph unicode="^" horiz-adv-x="2048" d="M414 899l465 563h288l465 -563h-264l-344 342l-346 -342h-264z" />
<glyph unicode="_" horiz-adv-x="1024" d="M0 -420h1024v-102h-1024v102z" />
<glyph unicode="`" horiz-adv-x="1024" d="M139 1483v55h383q76 -139 207 -250v-35h-235q-161 143 -355 230z" />
<glyph unicode="a" horiz-adv-x="1198" d="M12 -256l387 1386h459l328 -1386h-350l-25 115q-12 53 -12 86q0 11 8 73l-23 25q-31 -15 -66 -23t-57 -9t-61 -1h-33q-98 0 -161 33l-25 -20q10 -58 10 -80q0 -42 -10 -84l-33 -115h-336zM434 248l27 -31q57 21 145 21q79 0 133 -23l29 37q-57 95 -83 257.5t-50 477.5 h-55q-26 -279 -57.5 -451.5t-88.5 -287.5z" />
<glyph unicode="b" horiz-adv-x="1239" d="M150 -256v1386h370h48.5h54t51.5 -1t56.5 -2.5t51.5 -5t54.5 -8t47 -12t46.5 -16.5q83 -37 127.5 -110.5t44.5 -175.5q0 -135 -74.5 -208t-220.5 -79v-43h16q158 0 241 -83.5t83 -240.5q0 -254 -229 -358q-97 -43 -388 -43h-380zM451 338q51 -56 51 -139v-49 q0 -48 -9 -81t-38 -69l22 -41q22 14 47 21.5t40.5 9t41.5 2.5t35 2q83 8 120.5 47t37.5 121q0 64 -30.5 110t-78.5 58q-21 6 -61 8t-78.5 9.5t-73.5 27.5zM451 578l24 -39q58 34 150 34q59 0 102 36.5t43 105.5q0 115 -72 145q-32 14 -106.5 21t-114.5 30l-26 -39 q51 -57 51 -122v-50q0 -62 -51 -122z" />
<glyph unicode="c" horiz-adv-x="1179" d="M96 430q0 353 154.5 538t443.5 185q204 0 396 -123v-328h-123q-100 177 -236 177q-121 0 -188.5 -115t-67.5 -332q0 -211 68 -323.5t188 -112.5q137 0 236 176h123v-328q-196 -123 -396 -123q-287 0 -442.5 183t-155.5 526z" />
<glyph unicode="d" horiz-adv-x="1310" d="M150 -256v1386h370q165 0 276.5 -25.5t196.5 -92.5q110 -87 169 -229t59 -328q0 -196 -50 -343t-143 -233q-90 -83 -203.5 -109t-294.5 -26h-380zM449 2l20 -39q52 25 123.5 33.5t81.5 11.5q67 17 112 77.5t45 172.5l7 309q0 256 -158 297q-10 3 -81.5 11.5t-123.5 33.5 l-26 -39q34 -36 42.5 -73t8.5 -101v-518q0 -65 -9 -102.5t-42 -73.5z" />
<glyph unicode="e" horiz-adv-x="1118" d="M150 -256v1386h856v-241h-338q-49 0 -70.5 0.5t-57 6.5t-63.5 19l-26 -38q51 -57 51 -123v-49q0 -66 -51 -123l24 -39q60 35 172 35h338v-252h-317q-49 0 -70.5 0.5t-57 6.5t-63.5 19l-26 -39q51 -57 51 -125v-69q0 -63 -51 -123l24 -39q39 22 77.5 28.5t94.5 6.5h383 v-248h-880z" />
<glyph unicode="f" horiz-adv-x="1034" d="M150 -256v1386h856v-241h-338q-49 0 -70.5 0.5t-57 6.5t-63.5 19l-26 -38q51 -57 51 -123v-49q0 -66 -51 -123l24 -39q60 35 172 35h338v-252h-317q-49 0 -70.5 0.5t-57 6.5t-63.5 19l-26 -39q51 -57 51 -125v-444h-352z" />
<glyph unicode="g" horiz-adv-x="1310" d="M96 428q0 354 160.5 539.5t462.5 185.5q209 0 446 -117v-323h-116q-112 176 -295 176q-147 0 -213 -117t-66 -369q0 -419 250 -419q16 0 34 3t29.5 5.5t27.5 7.5t20 6v146q0 27 1 40t8 36.5t21 45.5l-37 37q-66 -47 -161 -47h-45v242h542v-762h-305v125h-53 q-44 -77 -100 -113q-62 -35 -146 -35q-201 0 -333 190.5t-132 516.5z" />
<glyph unicode="h" horiz-adv-x="1345" d="M150 -256v1386h354v-380q0 -62 -8 -99t-39 -73l28 -39q65 22 185 22q125 0 190 -22l31 39q-23 27 -34.5 58.5t-13 53.5t-1.5 66v374h354v-1386h-354v373q0 43 1.5 65t13 53.5t34.5 59.5l-31 39q-54 -15 -88 -17q-46 -6 -102 -6q-115 0 -185 23l-28 -39q31 -34 39 -67.5 t8 -98.5v-385h-354z" />
<glyph unicode="i" horiz-adv-x="743" d="M195 -256v1386h354v-1386h-354z" />
<glyph unicode="j" horiz-adv-x="1167" d="M102 303v158h334v-266q0 -46 1.5 -74.5t8 -59t18.5 -47t33 -27t52 -10.5q32 0 54.5 6t37 23.5t22.5 34.5t11.5 55.5t4.5 68t1 89.5v876h350v-911q0 -258 -110 -378t-363 -120q-137 0 -244 51.5t-153 129.5q-27 47 -40.5 115.5t-15.5 124t-2 161.5z" />
<glyph unicode="k" horiz-adv-x="1261" d="M152 -256v1386h344v-337q0 -193 -31 -390l45 -10q28 106 145 320l228 417h372l-213 -380q-23 -38 -38 -60.5t-40 -53t-54 -52.5t-64 -37v-49q43 -32 70.5 -74t60.5 -109l283 -571h-377l-230 489q-15 32 -19 78q-2 17 -2 31q0 26 5 45l-45 25l-109 -215q13 -100 13 -246 v-207h-344z" />
<glyph unicode="l" horiz-adv-x="1011" d="M150 -256v1386h352v-974q0 -16 -1 -30.5t-1.5 -25.5t-3.5 -22t-4 -17.5t-5.5 -15t-6 -12t-7 -10.5t-7 -9t-8 -9.5t-7.5 -8.5l24 -39q39 23 82 29t123 6h301v-248h-831z" />
<glyph unicode="m" horiz-adv-x="1685" d="M164 -256v1386h448l125 -464q63 -237 66 -562h86q0 303 69 576l117 450h449v-1386h-295v639q0 214 41 483h-82q-2 -85 -17 -178t-29.5 -151.5t-41.5 -153.5l-180 -639h-179l-211 807q-37 139 -43 315h-88q41 -273 41 -483v-639h-276z" />
<glyph unicode="n" horiz-adv-x="1392" d="M150 -256v1386h376l230 -477q78 -163 118.5 -300t40.5 -292h91q-60 394 -60 676v393h299v-1386h-346l-260 508q-162 314 -162 594h-88q60 -397 60 -676v-426h-299z" />
<glyph unicode="o" horiz-adv-x="1298" d="M90 440q0 354 140.5 533.5t416.5 179.5q278 0 419.5 -179.5t141.5 -533.5q0 -719 -559 -719t-559 719zM469 436q0 -258 35.5 -362.5t142.5 -104.5q109 0 145.5 103.5t36.5 363.5q0 258 -35.5 363.5t-142.5 105.5q-39 0 -67.5 -12t-49 -38.5t-33 -62.5t-20 -92t-10 -117 t-2.5 -147z" />
<glyph unicode="p" horiz-adv-x="1230" d="M150 -256v1386h438q95 0 148 -2.5t120 -16.5t117 -42q98 -56 151.5 -153.5t53.5 -223.5q0 -215 -134.5 -340t-349.5 -125q-104 0 -217 49l-26 -38q24 -30 35.5 -70.5t13.5 -72t2 -95.5v-256h-352zM451 473l24 -39q42 26 117.5 35.5t81.5 11.5q56 15 91.5 67.5t35.5 123.5 q0 102 -52.5 158.5t-132.5 56.5q-52 0 -78.5 6.5t-60.5 24.5l-26 -39q51 -57 51 -123v-160q0 -63 -51 -123z" />
<glyph unicode="q" horiz-adv-x="1251" d="M90 440q0 354 140.5 533.5t416.5 179.5q278 0 419.5 -179.5t141.5 -533.5q0 -309 -123 -469l207 -200l-196 -197l-213 211q-122 -61 -254 -61q-263 0 -401 181t-138 535zM469 330q0 -216 54 -319t173 -103q29 0 56 6v37q-56 16 -109 69l-108 113l131 146l92 -93l5.5 -5.5 l6.5 -6.5l7 -7t7.5 -8.5t7.5 -9.5t8 -11l7.5 -12.5t8 -14.5t7.5 -16t8 -19l39 22q-25 36 -33 90t-8 142v108q0 258 -35.5 362.5t-142.5 104.5q-33 0 -58 -7.5t-44 -27.5t-32 -42.5t-22 -63.5t-14 -78.5t-8 -101t-3.5 -116.5t-0.5 -138z" />
<glyph unicode="r" horiz-adv-x="1300" d="M150 -256v1386h438q145 0 235 -11.5t156 -49.5q180 -103 180 -326q0 -144 -60 -224t-171 -91l-6 -41l360 -643h-403l-269 578h-24q-54 0 -109 24l-26 -39q24 -30 35.5 -70.5t13.5 -71.5t2 -95v-326h-352zM428 516l25 -39q9 6 18.5 10.5t17 8t19.5 5.5l18 3t21.5 1.5 t21 0.5h24.5h25q101 0 154 45q55 45 55 137q0 53 -17.5 91.5t-47 57.5t-59 27t-62.5 8h-25q-92 0 -161 35l-27 -39q51 -57 51 -123v-106q0 -63 -51 -123z" />
<glyph unicode="s" horiz-adv-x="1183" d="M96 -180l13 356h116q41 -94 123.5 -148.5t179.5 -54.5q83 0 133 41t50 101q0 22 -6.5 41.5t-15.5 34.5t-27.5 30.5t-34 25.5t-44.5 24t-49 22.5t-56.5 24.5t-59.5 26q-316 141 -316 399q0 185 135.5 297.5t378.5 112.5q174 0 379 -80v-344h-123q-51 90 -119 137t-147 47 q-69 0 -112 -36.5t-43 -90.5q0 -26 7.5 -48t27 -42t39 -35t58 -34.5t67.5 -33t85 -38.5t94 -43q112 -53 178 -148t66 -206q0 -188 -149.5 -312.5t-395.5 -124.5q-185 0 -432 99z" />
<glyph unicode="t" horiz-adv-x="1081" d="M29 866v264h1026v-264h-174q-126 0 -193 31l-24 -41q51 -57 51 -197v-915h-350v915q0 135 53 197l-25 41q-28 -15 -63 -22t-59.5 -8t-71.5 -1h-170z" />
<glyph unicode="u" horiz-adv-x="1345" d="M150 207v923h354v-858q0 -164 32.5 -232.5t131.5 -68.5q45 0 77 14.5t51 38.5t29 65.5t13.5 84t3.5 105.5v851h354v-925q0 -257 -122.5 -370.5t-401.5 -113.5q-281 0 -401.5 112.5t-120.5 373.5z" />
<glyph unicode="v" horiz-adv-x="1202" d="M18 1130h353l118 -475q93 -370 93 -669h63q1 108 17 234t32 208t47 225l107 477h336l-416 -1386h-334z" />
<glyph unicode="w" horiz-adv-x="1748" d="M25 1130h344l53 -366q66 -449 70 -721h79q7 277 99 717l78 370h276l72 -344q31 -147 49 -242.5t35 -236t20 -264.5h80q5 402 66 727l63 360h313l-295 -1386h-340l-96 487q-68 354 -73 627h-84v-18q0 -246 -78 -617l-101 -479h-331z" />
<glyph unicode="x" horiz-adv-x="1267" d="M45 -256l350 694l-346 692h391l201 -557h53l156 557h373l-346 -690l346 -696h-389l-187 557h-55l-182 -557h-365z" />
<glyph unicode="y" horiz-adv-x="1206" d="M12 1130h373l66 -165q48 -123 67 -175.5t41.5 -151.5t22.5 -185v-9h67q0 83 22 179.5t44.5 159t68.5 178.5l66 169h346l-422 -851v-535h-344v535z" />
<glyph unicode="z" horiz-adv-x="1077" d="M76 -55l366 686q2 4 17.5 32.5t18.5 34.5t16.5 30t19 31.5t17.5 27t20 29t20 24t23.5 25t23.5 20.5l-22 41q-87 -35 -291 -35h-199v239h895v-172l-385 -712q-5 -9 -22.5 -41t-23.5 -42.5t-21 -36.5t-24.5 -39t-24 -32t-28.5 -33.5t-30 -27.5l25 -37q52 24 123.5 30.5 t197.5 6.5h211v-250h-923v201z" />
<glyph unicode="{" horiz-adv-x="1024" d="M70 414v233h73q91 0 136 49t45 176v201q0 222 131 320q115 89 288 86h211v-242h-82q-101 0 -135 -39q-30 -38 -30 -143v-240q0 -63 -8.5 -104t-32 -75t-67 -54.5t-112.5 -32.5v-37q69 -12 112.5 -32.5t67 -54.5t32 -75t8.5 -104v-240q0 -105 30 -143q34 -39 135 -39h82 v-242h-211q-173 -3 -288 86q-131 98 -131 320v184q0 142 -44.5 193t-136.5 49h-73z" />
<glyph unicode="|" horiz-adv-x="1024" d="M393 -512v2048h240v-2048h-240z" />
<glyph unicode="}" horiz-adv-x="1024" d="M70 -176h82q101 0 135 39q30 38 30 143v240q0 63 8.5 104t32 75t67 54.5t112.5 32.5v37q-69 12 -112.5 32.5t-67 54.5t-32 75t-8.5 104v240q0 105 -30 143q-34 39 -135 39h-82v242h211q173 3 288 -86q131 -98 131 -320v-201q0 -127 45 -176t136 -49h73v-233h-73 q-92 2 -136.5 -49t-44.5 -193v-184q0 -222 -131 -320q-115 -89 -288 -86h-211v242z" />
<glyph unicode="~" horiz-adv-x="1705" d="M178 401v254q222 144 387 144q119 0 295 -58q12 -4 56.5 -19.5t63 -21t54 -15.5t65.5 -13.5t60 -3.5q163 0 371 151v-254q-199 -137 -377 -137q-90 0 -172 29q-5 2 -47 16.5t-50.5 17.5t-45 15t-49 15t-43.5 12t-48 11.5t-43.5 7t-48.5 6t-45 1.5q-88 0 -179.5 -39 t-203.5 -119z" />
<glyph unicode="&#xa1;" horiz-adv-x="681" d="M125 -582l100 1164h234l94 -1164h-428zM127 745v408h428v-408h-428z" />
<glyph unicode="&#xa2;" d="M115 420q0 620 489 690v141h172v-139q145 -19 305 -113v-303h-127q-59 105 -178 154v-846q113 44 178 154h127v-303q-156 -92 -305 -111v-164h-172v166q-240 34 -364.5 205.5t-124.5 468.5zM463 422q0 -166 39.5 -267.5t124.5 -148.5l28 17q-11 20 -16 53.5t-5.5 59.5 t-0.5 95v383q0 131 14 215l-22 19q-86 -49 -124 -151.5t-38 -274.5z" />
<glyph unicode="&#xa3;" d="M98 526v174q44 0 66 -1t63.5 -8t79.5 -21l12 18q-73 132 -73 279q0 244 161 390t441 146q174 0 403 -71v-394h-145q-74 207 -254 207q-106 0 -171 -71t-65 -185q0 -52 11.5 -118.5t11.5 -77.5q0 -43 -16 -105l16 -18q74 30 192 30h203v-174h-184q-117 0 -199 29l-14 -16 q37 -78 37 -154q0 -211 -213 -362l26 -48q93 57 220 69.5t565 12.5v-313h-1168v256q107 26 148 78t41 158v83q0 148 41 226l-12 14q-59 -33 -146 -33h-78z" />
<glyph unicode="&#xa4;" horiz-adv-x="1241" d="M43 131l201 201q-64 106 -64 235q0 132 64 236l-201 201l141 141l201 -201q106 64 236 64q133 0 235 -64l201 201l141 -141l-201 -201q64 -102 64 -236t-64 -233l201 -203l-141 -141l-201 203q-105 -66 -235 -66q-132 0 -236 63l-201 -200zM426 567q0 -93 53 -154 t142 -61t141.5 61t52.5 154t-52.5 154t-141.5 61t-142 -61t-53 -154z" />
<glyph unicode="&#xa5;" d="M12 1479h396l81 -203q71 -176 110.5 -329.5t45.5 -311.5h74q8 157 48.5 305t111.5 330l79 209h396l-342 -768q-29 -70 -86 -107l24 -39q61 28 142 25h221v-174h-162q-133 0 -188.5 9t-79.5 28l-31 -43q13 -6 16.5 -34t3.5 -120q0 -81 -3.5 -107t-16.5 -32l31 -43 q24 19 79.5 28t188.5 9h162v-174h-162q-216 0 -268 32l-31 -35q27 -18 27 -118l-2 -72h-388v72q0 101 25 118l-31 35q-52 -32 -268 -32h-162v174h162q133 0 188.5 -9t79.5 -28l31 43q-13 6 -16.5 33.5t-3.5 117.5q0 83 3.5 109.5t16.5 32.5l-31 43q-24 -19 -79.5 -28 t-188.5 -9h-162v174h221q81 3 142 -25l24 39q-56 36 -86 107z" />
<glyph unicode="&#xa6;" horiz-adv-x="1024" d="M393 358h240v-716h-240v716zM393 666v716h240v-716h-240z" />
<glyph unicode="&#xa7;" horiz-adv-x="1304" d="M0 639q0 138 83 203.5t202 54.5v55q-72 4 -134.5 66.5t-62.5 179.5q0 62 24.5 115t77.5 97.5t148 70.5t223 26q256 0 455 -143l-142 -184q-27 44 -99.5 73t-141.5 29q-158 0 -158 -96q0 -28 9.5 -49t34 -37.5t43 -25.5t62 -26.5t66.5 -27.5q58 -26 91 -41t80.5 -38.5 t74 -39t62 -38t54 -41t40.5 -43t32.5 -49t17.5 -53.5t7 -61q0 -262 -277 -258v-57q55 -25 94.5 -54.5t58.5 -53.5t30 -53.5t12.5 -45.5t1.5 -39q0 -51 -16.5 -101t-56 -100t-98.5 -87t-152 -60.5t-209 -23.5q-57 0 -93.5 2t-103 12t-132 37.5t-126.5 70.5l141 205 q26 -42 96 -68.5t146 -33.5q40 -6 81 -2t74.5 13.5t54.5 35.5t21 65q0 62 -36 97t-125 73q-189 77 -234 98q-217 105 -276 235q-25 55 -25 116zM279 702q0 -64 50.5 -107t168.5 -101q159 -80 233 -80q67 0 103 40t36 91q0 35 -17.5 65t-56 57.5t-73.5 46.5t-96 48 q-134 67 -215 67q-61 0 -97 -38.5t-36 -88.5z" />
<glyph unicode="&#xa8;" horiz-adv-x="1024" d="M121 1266v260h321q-12 -80 -12 -131q0 -49 12 -129h-321zM582 1266q12 86 12 129q0 49 -12 131h321v-260h-321z" />
<glyph unicode="&#xa9;" horiz-adv-x="1705" d="M82 743q0 171 64 313.5t171.5 235t245.5 143t289 50.5q150 0 288 -50.5t245.5 -143t172 -235t64.5 -313.5t-64.5 -313.5t-172 -234.5t-245.5 -142.5t-288 -50.5q-120 0 -233 31.5t-210.5 94.5t-170.5 150.5t-114.5 207t-41.5 257.5zM266 743q0 -160 79 -295.5 t213.5 -213.5t293.5 -78t293.5 78t213.5 213.5t79 295.5t-79 295.5t-213.5 214t-293.5 78.5t-293.5 -78.5t-213.5 -214t-79 -295.5zM473 750q0 188 110 308t296 120q137 0 232 -79.5t118 -226.5h-180q-11 63 -57.5 92t-112.5 29q-88 0 -136.5 -64t-48.5 -175 q0 -107 52.5 -176.5t136.5 -69.5q72 0 117 31.5t49 95.5h188q-21 -148 -120 -229.5t-234 -81.5q-183 0 -296.5 121.5t-113.5 304.5z" />
<glyph unicode="&#xaa;" horiz-adv-x="1024" d="M61 809q0 123 103 206t317 138q43 12 103.5 22.5t89.5 12.5v24q0 41 -26.5 68t-66 36.5t-70.5 12t-56 0.5q-83 -9 -139 -38t-97 -85h-88v244q17 3 64 13t67.5 14t62 11t70 10.5t68 6t78.5 2.5q202 0 299.5 -81t97.5 -232v-393q0 -114 2 -159t12 -93h-301v76 q-73 -52 -141.5 -76.5t-169.5 -24.5q-113 0 -196 81.5t-83 203.5zM338 825q0 -51 41.5 -80.5t107.5 -29.5q29 0 72.5 11t77.5 30q9 5 20 11t17 9t12.5 8t11.5 11v34q-24 26 -24 84q0 26 0.5 37.5t6 29t17.5 32.5v26q-65 -11 -190 -55q-104 -36 -137 -69.5t-33 -88.5z" />
<glyph unicode="&#xab;" horiz-adv-x="1292" d="M27 614l258 320h329l-256 -320l265 -315h-332zM637 614l258 320h330l-256 -320l264 -315h-332z" />
<glyph unicode="&#xac;" horiz-adv-x="1705" d="M336 674v246h1032v-650h-246v404h-786z" />
<glyph unicode="&#xad;" d="M164 446v340h1038v-340h-1038z" />
<glyph unicode="&#xae;" horiz-adv-x="1705" d="M82 743q0 171 64 313.5t171.5 235t245.5 143t289 50.5q150 0 288 -50.5t245.5 -143t172 -235t64.5 -313.5t-64.5 -313.5t-172 -234.5t-245.5 -142.5t-288 -50.5q-120 0 -233 31.5t-210.5 94.5t-170.5 150.5t-114.5 207t-41.5 257.5zM266 743q0 -160 79 -295.5 t213.5 -213.5t293.5 -78t293.5 78t213.5 213.5t79 295.5t-79 295.5t-213.5 214t-293.5 78.5t-293.5 -78.5t-213.5 -214t-79 -295.5zM553 365v772h338q54 0 99.5 -9.5t86.5 -31t64.5 -62.5t23.5 -98q0 -74 -45.5 -123.5t-122.5 -64.5v-5q37 -3 63 -14.5t40 -25t23.5 -39.5 t13 -45t8.5 -56q1 -5 1.5 -8.5t0.5 -7.5q0 -3 4 -41t7 -55t10.5 -44t17.5 -42h-195q-13 72 -28 206q-10 103 -64 105h-158v-311h-188zM741 811h125q107 -3 107 100q0 52 -25.5 75.5t-81.5 25.5h-125v-201z" />
<glyph unicode="&#xaf;" horiz-adv-x="1024" d="M147 1298v195h730v-195h-730z" />
<glyph unicode="&#xb0;" horiz-adv-x="673" d="M27 1155q0 131 90.5 221t220.5 90q128 0 219.5 -90.5t91.5 -220.5q0 -128 -91.5 -219.5t-221.5 -91.5q-129 0 -219 90.5t-90 220.5zM172 1157q0 -69 48 -117.5t118 -48.5q68 0 116 49t48 117t-47.5 116t-116.5 48q-68 0 -117 -48t-49 -116z" />
<glyph unicode="&#xb1;" horiz-adv-x="1705" d="M336 -78v246h1032v-246h-1032zM336 623v245h393v320h246v-320h393v-245h-393v-308h-246v308h-393z" />
<glyph unicode="&#xb2;" horiz-adv-x="901" d="M66 383q0 121 54.5 206t174.5 173q17 12 52.5 38.5t50.5 38t43 34.5t41 37t31 36.5t26 41t14 43t6 50.5q0 69 -31 104.5t-88 35.5q-61 0 -84.5 -44t-23.5 -147v-10h-262v39q0 158 101 245t282 87q167 0 271.5 -92t104.5 -234q0 -172 -176 -307q-33 -26 -161.5 -104 t-215.5 -144l33 -31q50 29 100.5 38t120.5 9h310v-190h-772q-2 16 -2 47z" />
<glyph unicode="&#xb3;" horiz-adv-x="901" d="M72 393v240h92q27 -63 86.5 -99t130.5 -36q76 0 125 43.5t49 111.5q0 78 -54 113t-173 35h-27v172h31q207 0 207 123q0 57 -43 93t-109 36q-73 0 -119 -31t-80 -102h-94v235q171 64 342 64q199 0 291 -95q74 -74 74 -168q0 -80 -61 -137t-177 -80l4 -24 q123 -20 188.5 -86.5t65.5 -169.5q0 -142 -112 -225.5t-308 -83.5q-95 0 -172 15.5t-157 55.5z" />
<glyph unicode="&#xb4;" horiz-adv-x="1024" d="M293 1253v35q122 102 207 250h383v-55q-198 -86 -357 -230h-233z" />
<glyph unicode="&#xb6;" horiz-adv-x="1024" d="M20 1057q0 98 36.5 181t91.5 133.5t116.5 79t116.5 28.5h582v-1825h-215v1599h-179v-1599h-215v956q-135 0 -234.5 126t-99.5 321z" />
<glyph unicode="&#xb7;" horiz-adv-x="681" d="M127 358v484h428v-484h-428z" />
<glyph unicode="&#xb8;" horiz-adv-x="1024" d="M254 -557q152 -41 240 -41q100 0 100 70q0 33 -25 48t-80 15q-5 0 -16.5 -1t-17.5 -1v193h114v-88q46 4 64 4q104 0 158.5 -44.5t54.5 -127.5q0 -99 -77 -144t-237 -45q-143 0 -278 33v129z" />
<glyph unicode="&#xb9;" horiz-adv-x="901" d="M100 336v160h105q77 0 164 -17l10 19q-15 18 -22 49t-8 56.5t-1 80.5v369q0 100 35 180l-10 16q-98 -18 -160 -18h-104v145h505v-696q0 -75 -7.5 -116t-31.5 -70l21 -19q82 21 170 21h86v-160h-752z" />
<glyph unicode="&#xba;" horiz-adv-x="1042" d="M61 1016q0 239 117.5 365t341.5 126t342.5 -126t118.5 -365t-118.5 -365.5t-342.5 -126.5t-341.5 126t-117.5 366zM340 1016q0 -124 51 -200.5t129 -76.5q180 0 180 277q0 276 -180 276q-78 0 -129 -76t-51 -200z" />
<glyph unicode="&#xbb;" horiz-adv-x="1292" d="M59 299l265 315l-256 320h329l258 -320l-264 -315h-332zM670 299l264 315l-256 320h330l258 -320l-265 -315h-331z" />
<glyph unicode="&#xbc;" horiz-adv-x="2048" d="M106 223v199h115q93 0 174 -19l13 21q-21 31 -27 76t-6 127v493q0 140 39 223l-15 23q-111 -25 -170 -25h-110v183h540v-871q0 -93 -8 -144.5t-35 -86.5l25 -23q82 23 182 23h92v-199h-809zM1102 -78v275l411 727h357v-580q0 -64 -6.5 -102t-30.5 -70l22 -29 q86 18 113 19v-246q-39 0 -90 21l-10 -7v-307h-283v154q0 94 39 145l-20 21q-50 -21 -136 -21h-366zM1270 172l14 -27q80 19 207 19q79 0 135 -17l21 29q-35 48 -35 172q0 169 39 430h-60q-14 -109 -73 -217l-115 -211q-30 -54 -43 -76t-38 -53.5t-52 -48.5z" />
<glyph unicode="&#xbd;" horiz-adv-x="2048" d="M106 229v199h115q89 0 174 -20l13 22q-21 31 -27 76t-6 125v495q0 141 39 224l-15 20q-98 -22 -170 -22h-110v182h540v-871q0 -93 -8 -145.5t-35 -87.5l25 -23q89 25 182 25h92v-199h-809zM1118 -317q0 149 58.5 255.5t187.5 217.5q18 16 55.5 47.5t54.5 46.5t47 43 t44 45.5t33.5 45.5t28.5 52t15.5 55t6.5 64q0 85 -33 128.5t-94 43.5q-68 0 -92.5 -58t-24.5 -194h-281q-2 16 -2 51q0 197 109 306.5t303 109.5q179 0 292 -115.5t113 -291.5q0 -215 -188 -385q-37 -33 -175.5 -131.5t-229.5 -178.5l34 -39q55 38 114.5 49t145.5 11h310 v-238h-830q-2 20 -2 60z" />
<glyph unicode="&#xbe;" horiz-adv-x="2048" d="M111 309v299h98q29 -80 92.5 -125t140.5 -45q82 0 134.5 54.5t52.5 140.5q0 97 -58.5 140.5t-185.5 43.5h-29v215h33q223 0 223 156q0 72 -47.5 116t-122.5 44q-73 0 -121.5 -40t-84.5 -126h-101v295q183 79 363 79q187 0 292 -92.5t105 -236.5q0 -99 -65.5 -170 t-188.5 -101v-30q132 -25 202 -108t70 -212q0 -181 -121 -285t-341 -104q-187 0 -340 92zM1044 -78v275l410 727h358v-580q0 -44 -1.5 -68t-9.5 -53t-25 -51l20 -29q85 17 115 19v-246q-41 0 -92 21l-9 -7v-307h-282v154q0 97 37 145l-21 21q-50 -21 -182 -21h-318z M1212 172l13 -27q80 19 209 19q79 0 135 -17l18 29q-33 45 -33 172q0 182 37 430h-57q-14 -107 -74 -217l-114 -211q-29 -52 -43 -75.5t-39 -54.5t-52 -48z" />
<glyph unicode="&#xbf;" d="M111 -145q0 122 53.5 228t165.5 210q14 13 49 44t47.5 43t35.5 38t31.5 44.5t16.5 45t8 55.5v17h340v-76q0 -103 -32.5 -170t-106.5 -141q-19 -19 -57 -55.5t-53.5 -52.5t-41 -46.5t-36 -53t-19 -54t-8.5 -66.5q0 -97 49.5 -150t140.5 -53q84 0 132 60.5t48 168.5v86h377 q4 -54 4 -75q0 -249 -143.5 -380.5t-417.5 -131.5q-273 0 -428 126.5t-155 338.5zM477 745v408h428v-408h-428z" />
<glyph unicode="&#xc0;" horiz-adv-x="1394" d="M14 -256l447 1735h543l374 -1735h-391l-43 190q-16 74 6 156l-24 23q-102 -31 -230 -31q-94 0 -140.5 5.5t-100.5 25.5l-23 -19q15 -119 0 -182l-43 -168h-375zM326 1831v55h383q77 -141 206 -250v-34h-235q-160 142 -354 229zM489 358l25 -34q81 22 191 22 q102 0 174 -22l24 34q-52 110 -96 350t-64 578h-77q-60 -678 -177 -928z" />
<glyph unicode="&#xc1;" horiz-adv-x="1394" d="M14 -256l447 1735h543l374 -1735h-391l-43 190q-16 74 6 156l-24 23q-102 -31 -230 -31q-94 0 -140.5 5.5t-100.5 25.5l-23 -19q15 -119 0 -182l-43 -168h-375zM479 1602v34q122 102 207 250h383v-55q-198 -86 -356 -229h-234zM489 358l25 -34q81 22 191 22 q102 0 174 -22l24 34q-52 110 -96 350t-64 578h-77q-60 -678 -177 -928z" />
<glyph unicode="&#xc2;" horiz-adv-x="1394" d="M14 -256l447 1735h543l374 -1735h-391l-43 190q-16 74 6 156l-24 23q-102 -31 -230 -31q-94 0 -140.5 5.5t-100.5 25.5l-23 -19q15 -119 0 -182l-43 -168h-375zM377 1599v60q89 38 203 219h321q97 -168 201 -219v-60h-211q-51 26 -82 61t-51 89h-37q-22 -55 -52.5 -89.5 t-80.5 -60.5h-211zM489 358l25 -34q81 22 191 22q102 0 174 -22l24 34q-52 110 -96 350t-64 578h-77q-60 -678 -177 -928z" />
<glyph unicode="&#xc3;" horiz-adv-x="1394" d="M14 -256l447 1735h543l374 -1735h-391l-43 190q-16 74 6 156l-24 23q-102 -31 -230 -31q-94 0 -140.5 5.5t-100.5 25.5l-23 -19q15 -119 0 -182l-43 -168h-375zM315 1604q65 258 263 258q59 0 160 -37.5t122 -42.5q39 42 55 92h170q-39 -131 -102 -195.5t-156 -64.5 q-102 0 -288 88q-42 -45 -58 -98h-166zM489 358l25 -34q81 22 191 22q102 0 174 -22l24 34q-52 110 -96 350t-64 578h-77q-60 -678 -177 -928z" />
<glyph unicode="&#xc4;" horiz-adv-x="1394" d="M14 -256l447 1735h543l374 -1735h-391l-43 190q-16 74 6 156l-24 23q-102 -31 -230 -31q-94 0 -140.5 5.5t-100.5 25.5l-23 -19q15 -119 0 -182l-43 -168h-375zM307 1614v260h322q-13 -86 -13 -131q0 -43 13 -129h-322zM489 358l25 -34q81 22 191 22q102 0 174 -22l24 34 q-52 110 -96 350t-64 578h-77q-60 -678 -177 -928zM768 1614q12 85 12 129q0 49 -12 131h322v-260h-322z" />
<glyph unicode="&#xc5;" horiz-adv-x="1394" d="M14 -256l447 1735h543l374 -1735h-391l-43 190q-16 74 6 156l-24 23q-102 -31 -230 -31q-94 0 -140.5 5.5t-100.5 25.5l-23 -19q15 -119 0 -182l-43 -168h-375zM475 1802q0 94 74 163t180 69q107 0 181.5 -69t74.5 -163q0 -96 -74.5 -164.5t-181.5 -68.5 q-106 0 -180 68.5t-74 164.5zM489 358l25 -34q81 22 191 22q102 0 174 -22l24 34q-52 110 -96 350t-64 578h-77q-60 -678 -177 -928zM637 1800q0 -39 26.5 -65.5t65.5 -26.5q38 0 65 27t27 65q0 39 -26.5 65.5t-65.5 26.5q-40 0 -66 -26t-26 -66z" />
<glyph unicode="&#xc6;" horiz-adv-x="1832" d="M14 -256l684 1735h1022v-281h-237q-152 0 -234 29l-39 -37q64 -85 64 -174v-66q0 -77 -64 -166l39 -39q100 31 234 31h213v-295h-213q-151 0 -234 31l-39 -39q64 -83 64 -186v-74q0 -87 -64 -172l39 -37q88 29 234 29h266v-289h-872v84v127q0 44 30 113l-37 36 q-65 -26 -170 -26q-100 0 -165 26l-37 -36q3 -34 -68 -222l-39 -102h-377zM569 350l39 -39q12 10 46.5 19.5t82.5 9.5q23 0 43 -1.5t33 -4t24 -6.5t16.5 -7t10.5 -6.5t6 -3.5l60 39v936h-41q-21 -184 -103 -418l-90 -254q-83 -214 -127 -264z" />
<glyph unicode="&#xc7;" horiz-adv-x="1337" d="M90 612q0 436 182.5 665.5t515.5 229.5q231 0 463 -149v-395h-129q-116 223 -284 223q-153 0 -236.5 -148t-83.5 -432q0 -276 84 -421.5t234 -145.5q170 0 286 223h129v-395q-120 -79 -234 -115.5t-243 -36.5v-77q46 4 64 4q104 0 158.5 -44.5t54.5 -127.5 q0 -99 -77 -144t-237 -45q-143 0 -278 33v129q152 -41 239 -41q101 0 101 70q0 33 -25 48t-80 15q-5 0 -17 -1t-18 -1v191q-268 39 -418.5 267.5t-150.5 620.5z" />
<glyph unicode="&#xc8;" horiz-adv-x="1251" d="M141 -256v1735h998v-281h-391q-152 0 -234 29l-39 -37q64 -85 64 -174v-66q0 -77 -64 -166l39 -39q100 31 234 31h366v-295h-366q-151 0 -234 31l-39 -39q64 -83 64 -186v-74q0 -87 -64 -172l39 -37q88 29 234 29h419v-289h-1026zM254 1831v55h383q76 -139 207 -250v-34 h-236q-160 142 -354 229z" />
<glyph unicode="&#xc9;" horiz-adv-x="1251" d="M141 -256v1735h998v-281h-391q-152 0 -234 29l-39 -37q64 -85 64 -174v-66q0 -77 -64 -166l39 -39q100 31 234 31h366v-295h-366q-151 0 -234 31l-39 -39q64 -83 64 -186v-74q0 -87 -64 -172l39 -37q88 29 234 29h419v-289h-1026zM408 1602v34q120 100 206 250h383v-55 q-198 -86 -356 -229h-233z" />
<glyph unicode="&#xca;" horiz-adv-x="1251" d="M141 -256v1735h998v-281h-391q-152 0 -234 29l-39 -37q64 -85 64 -174v-66q0 -77 -64 -166l39 -39q100 31 234 31h366v-295h-366q-151 0 -234 31l-39 -39q64 -83 64 -186v-74q0 -87 -64 -172l39 -37q88 29 234 29h419v-289h-1026zM264 1599v60q89 38 203 219h321 q97 -168 201 -219v-60h-211q-51 26 -82 61t-51 89h-37q-22 -55 -52.5 -89.5t-80.5 -60.5h-211z" />
<glyph unicode="&#xcb;" horiz-adv-x="1251" d="M141 -256v1735h998v-281h-391q-152 0 -234 29l-39 -37q64 -85 64 -174v-66q0 -77 -64 -166l39 -39q100 31 234 31h366v-295h-366q-151 0 -234 31l-39 -39q64 -83 64 -186v-74q0 -87 -64 -172l39 -37q88 29 234 29h419v-289h-1026zM236 1614v260h321q-12 -79 -12 -131 q0 -49 12 -129h-321zM696 1614q13 93 13 129q0 42 -13 131h322v-260h-322z" />
<glyph unicode="&#xcc;" horiz-adv-x="768" d="M12 1831v55h383q76 -139 207 -250v-34h-235q-159 141 -355 229zM184 -256v1735h400v-1735h-400z" />
<glyph unicode="&#xcd;" horiz-adv-x="768" d="M166 1602v34q122 102 207 250h383v-55q-200 -87 -357 -229h-233zM184 -256v1735h400v-1735h-400z" />
<glyph unicode="&#xce;" horiz-adv-x="768" d="M23 1599v60q88 37 202 219h322q97 -168 201 -219v-60h-211q-51 26 -82.5 61t-51.5 89h-36q-22 -55 -53 -89.5t-81 -60.5h-210zM184 -256v1735h400v-1735h-400z" />
<glyph unicode="&#xcf;" horiz-adv-x="768" d="M-6 1614v260h321q-12 -79 -12 -131q0 -49 12 -129h-321zM184 -256v1735h400v-1735h-400zM455 1614q12 86 12 129q0 49 -12 131h321v-260h-321z" />
<glyph unicode="&#xd0;" horiz-adv-x="1478" d="M0 481v295h141v703h430q196 0 329.5 -32t227.5 -112q129 -107 198 -287.5t69 -420.5q0 -246 -55.5 -421t-174.5 -292q-56 -55 -117.5 -89.5t-137 -52t-148 -23t-178.5 -5.5h-443v737h-141zM475 51l39 -39q47 17 146.5 25t144.5 33q97 55 126.5 159t29.5 322v55 q0 120 -2.5 184t-13.5 137.5t-35.5 119t-65.5 79.5t-96 45t-122 16t-112 21l-39 -37q54 -60 63.5 -183.5t-34.5 -186.5l33 -49q17 12 47 17.5t49.5 6t62.5 0.5h88v-295h-96q-105 0 -151 31l-33 -49l16 -37q35 -79 17 -211q-10 -69 -23 -101t-39 -63z" />
<glyph unicode="&#xd1;" horiz-adv-x="1564" d="M141 -256v1735h453l276 -574q74 -155 125 -356t58 -402h110q-73 535 -73 871v461h331v-1735h-391l-368 754q-146 299 -152 620h-111q74 -467 74 -854v-520h-332zM399 1604q65 258 263 258q59 0 160 -37.5t122 -42.5q39 42 55 92h170q-39 -131 -102 -195.5t-156 -64.5 q-102 0 -288 88q-42 -45 -58 -98h-166z" />
<glyph unicode="&#xd2;" horiz-adv-x="1478" d="M86 614q0 445 163 669t486 224q327 0 492.5 -224t165.5 -669q0 -899 -654 -899q-653 0 -653 899zM367 1831v55h383q77 -141 206 -250v-34h-235q-160 142 -354 229zM512 612q0 -132 6 -224.5t20.5 -168.5t40 -121t64.5 -68.5t94 -23.5q58 0 98 24.5t65.5 70.5t40 128 t19.5 179t5 241q0 305 -48.5 436.5t-175.5 131.5q-47 0 -82.5 -15.5t-61 -49.5t-42 -81t-26 -118t-13.5 -151.5t-4 -189.5z" />
<glyph unicode="&#xd3;" horiz-adv-x="1478" d="M86 614q0 445 163 669t486 224q327 0 492.5 -224t165.5 -669q0 -899 -654 -899q-653 0 -653 899zM512 612q0 -132 6 -224.5t20.5 -168.5t40 -121t64.5 -68.5t94 -23.5q58 0 98 24.5t65.5 70.5t40 128t19.5 179t5 241q0 305 -48.5 436.5t-175.5 131.5q-47 0 -82.5 -15.5 t-61 -49.5t-42 -81t-26 -118t-13.5 -151.5t-4 -189.5zM520 1602v34q122 102 207 250h383v-55q-198 -86 -356 -229h-234z" />
<glyph unicode="&#xd4;" horiz-adv-x="1478" d="M86 614q0 445 163 669t486 224q327 0 492.5 -224t165.5 -669q0 -899 -654 -899q-653 0 -653 899zM377 1599v60q89 38 203 219h321q97 -168 201 -219v-60h-211q-51 26 -82 61t-51 89h-37q-22 -55 -52.5 -89.5t-80.5 -60.5h-211zM512 612q0 -132 6 -224.5t20.5 -168.5 t40 -121t64.5 -68.5t94 -23.5q58 0 98 24.5t65.5 70.5t40 128t19.5 179t5 241q0 305 -48.5 436.5t-175.5 131.5q-47 0 -82.5 -15.5t-61 -49.5t-42 -81t-26 -118t-13.5 -151.5t-4 -189.5z" />
<glyph unicode="&#xd5;" horiz-adv-x="1478" d="M86 614q0 445 163 669t486 224q327 0 492.5 -224t165.5 -669q0 -899 -654 -899q-653 0 -653 899zM356 1604q64 258 262 258q59 0 161 -37.5t122 -42.5q39 42 55 92h170q-39 -131 -102 -195.5t-156 -64.5q-102 0 -288 88q-42 -45 -58 -98h-166zM512 612q0 -132 6 -224.5 t20.5 -168.5t40 -121t64.5 -68.5t94 -23.5q58 0 98 24.5t65.5 70.5t40 128t19.5 179t5 241q0 305 -48.5 436.5t-175.5 131.5q-47 0 -82.5 -15.5t-61 -49.5t-42 -81t-26 -118t-13.5 -151.5t-4 -189.5z" />
<glyph unicode="&#xd6;" horiz-adv-x="1478" d="M86 614q0 445 163 669t486 224q327 0 492.5 -224t165.5 -669q0 -899 -654 -899q-653 0 -653 899zM348 1614v260h322q-13 -86 -13 -131q0 -43 13 -129h-322zM512 612q0 -132 6 -224.5t20.5 -168.5t40 -121t64.5 -68.5t94 -23.5q58 0 98 24.5t65.5 70.5t40 128t19.5 179 t5 241q0 305 -48.5 436.5t-175.5 131.5q-47 0 -82.5 -15.5t-61 -49.5t-42 -81t-26 -118t-13.5 -151.5t-4 -189.5zM809 1614q12 85 12 129q0 49 -12 131h321v-260h-321z" />
<glyph unicode="&#xd7;" horiz-adv-x="1705" d="M358 242l326 325l-326 326l168 168l326 -326l326 326l168 -168l-328 -326l328 -325l-168 -168l-326 327l-326 -327z" />
<glyph unicode="&#xd8;" horiz-adv-x="1478" d="M0 -74l37 51q22 28 33.5 42t31 35.5t35.5 32t31 11.5l16 54q-51 31 -74.5 162t-23.5 300q0 445 163 669t486 224q298 0 383 -155h53q10 50 74 123l29 32l205 -204l-37 -52q-22 -28 -33.5 -42t-31 -35.5t-35.5 -32t-31 -11.5l-17 -53q51 -31 75 -162.5t24 -300.5 q0 -899 -650 -899q-138 0 -238.5 40.5t-144.5 121.5h-53q-10 -50 -74 -123l-28 -33zM436 547l84 -47q22 69 45.5 109.5t79.5 105.5l92 108q14 15 40.5 46.5t37 43t30.5 30.5t33 25.5t31 11.5t37 3l29 86q-20 4 -37.5 21t-33.5 38t-36.5 41.5t-57 34t-85.5 13.5 q-205 0 -205 -406q0 -139 -84 -264zM504 168q20 -8 38 -28.5t33 -42.5t33.5 -43t48.5 -34.5t68 -13.5q57 0 97.5 19.5t72 65.5t47.5 129.5t16 205.5q0 139 86 264l-83 47q-20 -63 -47.5 -108.5t-73.5 -100.5l-99 -114q-11 -13 -30 -36q-37 -44 -53 -62t-39 -37t-42 -23.5 t-45 -1.5z" />
<glyph unicode="&#xd9;" horiz-adv-x="1507" d="M141 371v1108h400v-1135q0 -175 48 -256.5t161 -81.5q120 0 168.5 86t48.5 264v1123h397v-1162q0 -322 -141 -462t-469 -140q-221 0 -357 64t-200 203q-34 75 -45 165.5t-11 223.5zM381 1831v55h383q76 -139 207 -250v-34h-236q-160 142 -354 229z" />
<glyph unicode="&#xda;" horiz-adv-x="1507" d="M141 371v1108h400v-1135q0 -175 48 -256.5t161 -81.5q120 0 168.5 86t48.5 264v1123h397v-1162q0 -322 -141 -462t-469 -140q-221 0 -357 64t-200 203q-34 75 -45 165.5t-11 223.5zM535 1602v34q120 100 206 250h383v-55q-198 -86 -356 -229h-233z" />
<glyph unicode="&#xdb;" horiz-adv-x="1507" d="M141 371v1108h400v-1135q0 -175 48 -256.5t161 -81.5q120 0 168.5 86t48.5 264v1123h397v-1162q0 -322 -141 -462t-469 -140q-221 0 -357 64t-200 203q-34 75 -45 165.5t-11 223.5zM391 1599v60q89 38 203 219h321q97 -168 201 -219v-60h-211q-51 26 -82 61t-51 89h-37 q-22 -55 -52.5 -89.5t-80.5 -60.5h-211z" />
<glyph unicode="&#xdc;" horiz-adv-x="1507" d="M141 371v1108h400v-1135q0 -175 48 -256.5t161 -81.5q120 0 168.5 86t48.5 264v1123h397v-1162q0 -322 -141 -462t-469 -140q-221 0 -357 64t-200 203q-34 75 -45 165.5t-11 223.5zM362 1614v260h322q-12 -79 -12 -131q0 -49 12 -129h-322zM823 1614q13 93 13 129 q0 42 -13 131h322v-260h-322z" />
<glyph unicode="&#xdd;" horiz-adv-x="1394" d="M12 1479h422l82 -203q71 -176 110.5 -329.5t45.5 -311.5h78q8 158 48.5 306.5t110.5 328.5l80 209h393l-493 -1067v-668h-387v668zM479 1602v34q122 102 207 250h383v-55q-198 -86 -356 -229h-234z" />
<glyph unicode="&#xde;" horiz-adv-x="1394" d="M141 -256v1735h398v-97q0 -50 -2.5 -83t-15 -76.5t-36.5 -75.5l33 -41q130 87 350 74q151 -14 236 -66q113 -68 175 -189t62 -276q0 -274 -157.5 -426.5t-435.5 -152.5q-97 0 -230 45l-33 -41q35 -46 44.5 -107.5t9.5 -169.5v-53h-398zM483 373l29 -43q38 9 123.5 18 t128.5 23q67 21 110.5 91t43.5 165q0 96 -38.5 163.5t-109.5 98.5q-32 14 -116 23.5t-134 27.5l-33 -39q22 -29 36 -86t14 -117v-80q0 -90 -9.5 -143.5t-44.5 -101.5z" />
<glyph unicode="&#xdf;" horiz-adv-x="2367" d="M96 -180l13 356h116q41 -94 123.5 -148.5t179.5 -54.5q83 0 133 41t50 101q0 22 -6.5 41.5t-15.5 34.5t-27.5 30.5t-34 25.5t-44.5 24t-49 22.5t-56.5 24.5t-59.5 26q-316 141 -316 399q0 185 135.5 297.5t378.5 112.5q174 0 379 -80v-344h-123q-51 90 -119 137t-147 47 q-69 0 -112 -36.5t-43 -90.5q0 -26 7.5 -48t27 -42t39 -35t58 -34.5t67.5 -33t85 -38.5t94 -43q112 -53 178 -148t66 -206q0 -188 -149.5 -312.5t-395.5 -124.5q-185 0 -432 99zM1280 -180l12 356h117q41 -94 123.5 -148.5t179.5 -54.5q83 0 132.5 41t49.5 101 q0 22 -6.5 41.5t-15.5 34.5t-27.5 30.5t-34 25.5t-44 24t-48.5 22.5t-56.5 24.5t-59.5 26q-316 141 -316 399q0 185 135.5 297.5t378.5 112.5q174 0 379 -80v-344h-123q-51 90 -119 137t-147 47q-69 0 -112.5 -36.5t-43.5 -90.5q0 -26 7.5 -48t27.5 -42t39 -35t57.5 -34.5 t68 -33t85 -38.5t94.5 -43q112 -53 178 -148t66 -206q0 -188 -149.5 -312.5t-395.5 -124.5q-185 0 -432 99z" />
<glyph unicode="&#xe0;" horiz-adv-x="1198" d="M12 -256l387 1386h459l328 -1386h-350l-25 115q-12 53 -12 86q0 11 8 73l-23 25q-31 -15 -66 -23t-57 -9t-61 -1h-33q-98 0 -161 33l-25 -20q10 -58 10 -80q0 -42 -10 -84l-33 -115h-336zM227 1483v55h383q76 -139 207 -250v-35h-235q-161 143 -355 230zM434 248l27 -31 q57 21 145 21q79 0 133 -23l29 37q-57 95 -83 257.5t-50 477.5h-55q-26 -279 -57.5 -451.5t-88.5 -287.5z" />
<glyph unicode="&#xe1;" horiz-adv-x="1198" d="M12 -256l387 1386h459l328 -1386h-350l-25 115q-12 53 -12 86q0 11 8 73l-23 25q-31 -15 -66 -23t-57 -9t-61 -1h-33q-98 0 -161 33l-25 -20q10 -58 10 -80q0 -42 -10 -84l-33 -115h-336zM381 1253v35q122 102 207 250h383v-55q-198 -86 -357 -230h-233zM434 248l27 -31 q57 21 145 21q79 0 133 -23l29 37q-57 95 -83 257.5t-50 477.5h-55q-26 -279 -57.5 -451.5t-88.5 -287.5z" />
<glyph unicode="&#xe2;" horiz-adv-x="1198" d="M12 -256l387 1386h459l328 -1386h-350l-25 115q-12 53 -12 86q0 11 8 73l-23 25q-31 -15 -66 -23t-57 -9t-61 -1h-33q-98 0 -161 33l-25 -20q10 -58 10 -80q0 -42 -10 -84l-33 -115h-336zM238 1251v60q88 37 202 219h322q97 -168 201 -219v-60h-211q-51 26 -82.5 61 t-51.5 89h-36q-22 -55 -52.5 -89.5t-80.5 -60.5h-211zM434 248l27 -31q57 21 145 21q79 0 133 -23l29 37q-57 95 -83 257.5t-50 477.5h-55q-26 -279 -57.5 -451.5t-88.5 -287.5z" />
<glyph unicode="&#xe3;" horiz-adv-x="1198" d="M12 -256l387 1386h459l328 -1386h-350l-25 115q-12 53 -12 86q0 11 8 73l-23 25q-31 -15 -66 -23t-57 -9t-61 -1h-33q-98 0 -161 33l-25 -20q10 -58 10 -80q0 -42 -10 -84l-33 -115h-336zM217 1255q65 258 262 258q59 0 161.5 -37t121.5 -42q39 42 55 92h170 q-39 -131 -102 -195.5t-156 -64.5q-103 0 -289 88q-40 -43 -57 -99h-166zM434 248l27 -31q57 21 145 21q79 0 133 -23l29 37q-57 95 -83 257.5t-50 477.5h-55q-26 -279 -57.5 -451.5t-88.5 -287.5z" />
<glyph unicode="&#xe4;" horiz-adv-x="1198" d="M12 -256l387 1386h459l328 -1386h-350l-25 115q-12 53 -12 86q0 11 8 73l-23 25q-31 -15 -66 -23t-57 -9t-61 -1h-33q-98 0 -161 33l-25 -20q10 -58 10 -80q0 -42 -10 -84l-33 -115h-336zM209 1266v260h321q-12 -80 -12 -131q0 -49 12 -129h-321zM434 248l27 -31 q57 21 145 21q79 0 133 -23l29 37q-57 95 -83 257.5t-50 477.5h-55q-26 -279 -57.5 -451.5t-88.5 -287.5zM670 1266q12 86 12 129q0 49 -12 131h321v-260h-321z" />
<glyph unicode="&#xe5;" horiz-adv-x="1198" d="M12 -256l387 1386h459l328 -1386h-350l-25 115q-12 53 -12 86q0 11 8 73l-23 25q-31 -15 -66 -23t-57 -9t-61 -1h-33q-98 0 -161 33l-25 -20q10 -58 10 -80q0 -42 -10 -84l-33 -115h-336zM346 1454q0 94 74 163t180 69q107 0 181.5 -69t74.5 -163q0 -96 -74.5 -164.5 t-181.5 -68.5q-106 0 -180 68.5t-74 164.5zM434 248l27 -31q57 21 145 21q79 0 133 -23l29 37q-57 95 -83 257.5t-50 477.5h-55q-26 -279 -57.5 -451.5t-88.5 -287.5zM508 1452q0 -39 26.5 -65.5t65.5 -26.5q38 0 65 27t27 65q0 39 -26.5 65.5t-65.5 26.5q-40 0 -66 -26 t-26 -66z" />
<glyph unicode="&#xe6;" horiz-adv-x="1640" d="M12 -256l641 1386h875v-241h-185q-48 0 -70 0.5t-57 6.5t-63 19l-27 -38q52 -58 52 -123v-49q0 -65 -52 -123l25 -39q60 35 172 35h184v-252h-164q-48 0 -70 0.5t-57 6.5t-63 19l-27 -39q52 -58 52 -125v-69q0 -62 -52 -123l25 -39q39 22 77.5 28.5t94.5 6.5h229v-248 h-727v274l-41 25q-31 -15 -66 -23t-57 -9t-61 -1h-33q-98 0 -161 33l-25 -20q10 -58 10 -80q0 -42 -10 -84l-33 -115h-336zM434 248l27 -31q57 21 162 21q126 0 174 -21l28 35v735h-47q-70 -281 -145 -450t-199 -289z" />
<glyph unicode="&#xe7;" horiz-adv-x="1179" d="M96 430q0 353 154.5 538t443.5 185q204 0 396 -123v-328h-123q-100 177 -236 177q-121 0 -188.5 -115t-67.5 -332q0 -211 68 -323.5t188 -112.5q137 0 236 176h123v-328q-194 -120 -388 -123v-83q46 4 64 4q104 0 158.5 -44.5t54.5 -127.5q0 -99 -76.5 -144t-236.5 -45 q-144 0 -279 33v129q152 -41 240 -41q100 0 100 70q0 33 -25 48t-79 15q-5 0 -17 -1t-18 -1v197q-238 32 -365 211.5t-127 488.5z" />
<glyph unicode="&#xe8;" horiz-adv-x="1118" d="M150 -256v1386h856v-241h-338q-49 0 -70.5 0.5t-57 6.5t-63.5 19l-26 -38q51 -57 51 -123v-49q0 -66 -51 -123l24 -39q60 35 172 35h338v-252h-317q-49 0 -70.5 0.5t-57 6.5t-63.5 19l-26 -39q51 -57 51 -125v-69q0 -63 -51 -123l24 -39q39 22 77.5 28.5t94.5 6.5h383 v-248h-880zM186 1483v55h383q76 -139 207 -250v-35h-235q-161 143 -355 230z" />
<glyph unicode="&#xe9;" horiz-adv-x="1118" d="M150 -256v1386h856v-241h-338q-49 0 -70.5 0.5t-57 6.5t-63.5 19l-26 -38q51 -57 51 -123v-49q0 -66 -51 -123l24 -39q60 35 172 35h338v-252h-317q-49 0 -70.5 0.5t-57 6.5t-63.5 19l-26 -39q51 -57 51 -125v-69q0 -63 -51 -123l24 -39q39 22 77.5 28.5t94.5 6.5h383 v-248h-880zM340 1253v35q122 102 207 250h383v-55q-198 -86 -357 -230h-233z" />
<glyph unicode="&#xea;" horiz-adv-x="1118" d="M150 -256v1386h856v-241h-338q-49 0 -70.5 0.5t-57 6.5t-63.5 19l-26 -38q51 -57 51 -123v-49q0 -66 -51 -123l24 -39q60 35 172 35h338v-252h-317q-49 0 -70.5 0.5t-57 6.5t-63.5 19l-26 -39q51 -57 51 -125v-69q0 -63 -51 -123l24 -39q39 22 77.5 28.5t94.5 6.5h383 v-248h-880zM197 1251v60q88 37 202 219h322q97 -168 201 -219v-60h-211q-51 26 -82 61t-51 89h-37q-22 -55 -52.5 -89.5t-80.5 -60.5h-211z" />
<glyph unicode="&#xeb;" horiz-adv-x="1118" d="M150 -256v1386h856v-241h-338q-49 0 -70.5 0.5t-57 6.5t-63.5 19l-26 -38q51 -57 51 -123v-49q0 -66 -51 -123l24 -39q60 35 172 35h338v-252h-317q-49 0 -70.5 0.5t-57 6.5t-63.5 19l-26 -39q51 -57 51 -125v-69q0 -63 -51 -123l24 -39q39 22 77.5 28.5t94.5 6.5h383 v-248h-880zM168 1266v260h321q-12 -80 -12 -131q0 -49 12 -129h-321zM629 1266q12 86 12 129q0 49 -12 131h321v-260h-321z" />
<glyph unicode="&#xec;" horiz-adv-x="743" d="M0 1483v55h383q76 -139 207 -250v-35h-236q-163 144 -354 230zM195 -256v1386h354v-1386h-354z" />
<glyph unicode="&#xed;" horiz-adv-x="743" d="M154 1253v35q120 100 206 250h383v-55q-196 -85 -356 -230h-233zM195 -256v1386h354v-1386h-354z" />
<glyph unicode="&#xee;" horiz-adv-x="743" d="M10 1251v60q89 38 203 219h322q97 -169 200 -219v-60h-211q-51 26 -82 61t-51 89h-37q-22 -55 -52.5 -89.5t-80.5 -60.5h-211zM195 -256v1386h354v-1386h-354z" />
<glyph unicode="&#xef;" horiz-adv-x="743" d="M-18 1266v260h321q-12 -80 -12 -131q0 -49 12 -129h-321zM195 -256v1386h354v-1386h-354zM442 1266q13 93 13 129q0 42 -13 131h322v-260h-322z" />
<glyph unicode="&#xf0;" horiz-adv-x="1310" d="M0 326v252h150v552h370q165 0 276.5 -25.5t196.5 -92.5q110 -87 169 -229t59 -328q0 -196 -50 -343t-143 -233q-90 -83 -203.5 -109t-294.5 -26h-380v582h-150zM422 287q39 -22 54 -42q24 -34 24 -93q0 -51 -10.5 -85.5t-40.5 -64.5l26 -39q45 24 121.5 32.5t101.5 18.5 q140 54 140 297v250q3 118 -35.5 197t-112.5 104q-25 8 -97.5 15.5t-117.5 31.5l-26 -39q51 -55 51 -129q0 -53 -22.5 -84t-55.5 -41l27 -38h219v-252h-219z" />
<glyph unicode="&#xf1;" horiz-adv-x="1392" d="M150 -256v1386h376l230 -477q78 -163 118.5 -300t40.5 -292h91q-60 394 -60 676v393h299v-1386h-346l-260 508q-162 314 -162 594h-88q60 -397 60 -676v-426h-299zM313 1255q65 258 262 258q59 0 161.5 -37t121.5 -42q39 42 55 92h170q-39 -131 -102 -195.5t-156 -64.5 q-102 0 -288 88q-41 -44 -58 -99h-166z" />
<glyph unicode="&#xf2;" horiz-adv-x="1298" d="M90 440q0 354 140.5 533.5t416.5 179.5q278 0 419.5 -179.5t141.5 -533.5q0 -719 -559 -719t-559 719zM276 1483v55h383q76 -139 207 -250v-35h-235q-161 143 -355 230zM469 436q0 -258 35.5 -362.5t142.5 -104.5q109 0 145.5 103.5t36.5 363.5q0 258 -35.5 363.5 t-142.5 105.5q-39 0 -67.5 -12t-49 -38.5t-33 -62.5t-20 -92t-10 -117t-2.5 -147z" />
<glyph unicode="&#xf3;" horiz-adv-x="1298" d="M90 440q0 354 140.5 533.5t416.5 179.5q278 0 419.5 -179.5t141.5 -533.5q0 -719 -559 -719t-559 719zM430 1253v35q122 102 207 250h383v-55q-196 -85 -356 -230h-234zM469 436q0 -258 35.5 -362.5t142.5 -104.5q109 0 145.5 103.5t36.5 363.5q0 258 -35.5 363.5 t-142.5 105.5q-39 0 -67.5 -12t-49 -38.5t-33 -62.5t-20 -92t-10 -117t-2.5 -147z" />
<glyph unicode="&#xf4;" horiz-adv-x="1298" d="M90 440q0 354 140.5 533.5t416.5 179.5q278 0 419.5 -179.5t141.5 -533.5q0 -719 -559 -719t-559 719zM287 1251v60q88 37 202 219h322q97 -168 201 -219v-60h-211q-51 26 -82 61t-51 89h-37q-22 -55 -52.5 -89.5t-80.5 -60.5h-211zM469 436q0 -258 35.5 -362.5 t142.5 -104.5q109 0 145.5 103.5t36.5 363.5q0 258 -35.5 363.5t-142.5 105.5q-39 0 -67.5 -12t-49 -38.5t-33 -62.5t-20 -92t-10 -117t-2.5 -147z" />
<glyph unicode="&#xf5;" horiz-adv-x="1298" d="M90 440q0 354 140.5 533.5t416.5 179.5q278 0 419.5 -179.5t141.5 -533.5q0 -719 -559 -719t-559 719zM266 1255q64 258 262 258q59 0 161.5 -37t121.5 -42q39 42 55 92h170q-39 -131 -102 -195.5t-156 -64.5q-103 0 -289 88q-40 -43 -57 -99h-166zM469 436 q0 -258 35.5 -362.5t142.5 -104.5q109 0 145.5 103.5t36.5 363.5q0 258 -35.5 363.5t-142.5 105.5q-39 0 -67.5 -12t-49 -38.5t-33 -62.5t-20 -92t-10 -117t-2.5 -147z" />
<glyph unicode="&#xf6;" horiz-adv-x="1298" d="M90 440q0 354 140.5 533.5t416.5 179.5q278 0 419.5 -179.5t141.5 -533.5q0 -719 -559 -719t-559 719zM258 1266v260h322q-13 -86 -13 -131q0 -43 13 -129h-322zM469 436q0 -258 35.5 -362.5t142.5 -104.5q109 0 145.5 103.5t36.5 363.5q0 258 -35.5 363.5t-142.5 105.5 q-39 0 -67.5 -12t-49 -38.5t-33 -62.5t-20 -92t-10 -117t-2.5 -147zM719 1266q12 86 12 129q0 49 -12 131h321v-260h-321z" />
<glyph unicode="&#xf7;" horiz-adv-x="1705" d="M336 444v246h1032v-246h-1032zM664 143q0 78 56.5 133.5t133.5 55.5q75 0 131.5 -56.5t56.5 -132.5q0 -72 -56.5 -131t-129.5 -59q-78 0 -135 56.5t-57 133.5zM664 991q0 78 56.5 134.5t133.5 56.5q75 0 131.5 -57.5t56.5 -133.5q0 -71 -56.5 -129.5t-129.5 -58.5 q-78 0 -135 56t-57 132z" />
<glyph unicode="&#xf8;" horiz-adv-x="1298" d="M0 -88l29 35q35 40 47.5 54t34.5 27.5t41 10.5l12 49q-74 112 -74 352q0 354 140.5 533.5t416.5 179.5q234 0 336 -117h49q-1 11 1.5 21t9.5 20.5t12 17t15 17.5t13 14l25 27l190 -190l-38 -52q-4 -4 -12 -12.5t-11.5 -12l-11.5 -11.5t-11 -10.5t-10.5 -9.5t-10.5 -8 t-11 -6t-11.5 -4t-11.5 -1.5t-12 0.5l-12 -50q73 -102 73 -346q0 -719 -557 -719q-243 0 -336 123h-49q1 -12 -1.5 -23.5t-9.5 -23t-11.5 -17.5t-16 -18t-12.5 -14l-25 -27zM442 424l37 -49q9 47 25 74.5t51 62t51 53.5l74 84q70 75 123 84l28 49q-12 5 -25.5 20t-26 32 t-29 33.5t-42 27t-57.5 10.5q-83 0 -128.5 -75.5t-45.5 -184.5q0 -134 -35 -221zM469 92q14 -6 32 -27.5t33.5 -42t46.5 -37t70 -16.5q79 0 126.5 77t47.5 183q0 79 7.5 129t35.5 93l-37 49q-8 -21 -19 -41.5t-18.5 -33t-26 -35t-23.5 -29t-30.5 -34t-29.5 -32.5 q-124 -143 -186 -154z" />
<glyph unicode="&#xf9;" horiz-adv-x="1345" d="M150 207v923h354v-858q0 -164 32.5 -232.5t131.5 -68.5q45 0 77 14.5t51 38.5t29 65.5t13.5 84t3.5 105.5v851h354v-925q0 -257 -122.5 -370.5t-401.5 -113.5q-281 0 -401.5 112.5t-120.5 373.5zM301 1483v55h383q76 -139 207 -250v-35h-236q-163 144 -354 230z" />
<glyph unicode="&#xfa;" horiz-adv-x="1345" d="M150 207v923h354v-858q0 -164 32.5 -232.5t131.5 -68.5q45 0 77 14.5t51 38.5t29 65.5t13.5 84t3.5 105.5v851h354v-925q0 -257 -122.5 -370.5t-401.5 -113.5q-281 0 -401.5 112.5t-120.5 373.5zM455 1253v35q122 102 207 250h382v-55q-196 -85 -356 -230h-233z" />
<glyph unicode="&#xfb;" horiz-adv-x="1345" d="M150 207v923h354v-858q0 -164 32.5 -232.5t131.5 -68.5q45 0 77 14.5t51 38.5t29 65.5t13.5 84t3.5 105.5v851h354v-925q0 -257 -122.5 -370.5t-401.5 -113.5q-281 0 -401.5 112.5t-120.5 373.5zM311 1251v60q89 38 203 219h322q97 -169 200 -219v-60h-211q-51 26 -82 61 t-51 89h-37q-22 -55 -52.5 -89.5t-80.5 -60.5h-211z" />
<glyph unicode="&#xfc;" horiz-adv-x="1345" d="M150 207v923h354v-858q0 -164 32.5 -232.5t131.5 -68.5q45 0 77 14.5t51 38.5t29 65.5t13.5 84t3.5 105.5v851h354v-925q0 -257 -122.5 -370.5t-401.5 -113.5q-281 0 -401.5 112.5t-120.5 373.5zM283 1266v260h321q-12 -80 -12 -131q0 -49 12 -129h-321zM743 1266 q13 93 13 129q0 42 -13 131h322v-260h-322z" />
<glyph unicode="&#xfd;" horiz-adv-x="1206" d="M12 1130h373l66 -165q48 -123 67 -175.5t41.5 -151.5t22.5 -185v-9h67q0 83 22 179.5t44.5 159t68.5 178.5l66 169h346l-422 -851v-535h-344v535zM385 1253v35q122 102 207 250h383v-55q-198 -86 -357 -230h-233z" />
<glyph unicode="&#xfe;" horiz-adv-x="1230" d="M150 -256v1386h352v-40q0 -42 -2 -62.5t-13.5 -50t-35.5 -59.5l26 -39q113 49 217 49q109 0 195 -22t152 -68.5t101.5 -125t35.5 -184.5q0 -215 -134.5 -340t-349.5 -125q-102 0 -217 50l-26 -39q51 -63 51 -172v-158h-352zM451 293l24 -39q42 26 117.5 35.5t81.5 11.5 q56 15 91.5 67.5t35.5 123.5q0 101 -52 158t-147 57q-69 0 -125 30l-26 -39q51 -57 51 -123v-159q0 -63 -51 -123z" />
<glyph unicode="&#xff;" horiz-adv-x="1206" d="M12 1130h373l66 -165q48 -123 67 -175.5t41.5 -151.5t22.5 -185v-9h67q0 83 22 179.5t44.5 159t68.5 178.5l66 169h346l-422 -851v-535h-344v535zM213 1266v260h322q-13 -86 -13 -131q0 -43 13 -129h-322zM674 1266q12 86 12 129q0 49 -12 131h321v-260h-321z" />
<glyph unicode="&#x152;" horiz-adv-x="1921" d="M86 614q0 162 23 295.5t60 224t89.5 160t106 109t115.5 64t111.5 32.5t100.5 8q76 0 139 -24t84 -43h50v39h843v-281h-237q-152 0 -234 29l-39 -37q64 -85 64 -174v-66q0 -77 -64 -166l39 -39q100 31 234 31h213v-295h-213q-151 0 -234 31l-39 -39q64 -83 64 -186v-74 q0 -87 -64 -172l39 -37q33 14 115.5 20.5t156.5 7.5t228 1v-289h-872v39h-54q-89 -62 -219 -62q-51 0 -100.5 8t-111.5 32.5t-115.5 64t-106 108.5t-89.5 159.5t-60 224.5t-23 296zM512 612q0 -132 6 -224.5t20.5 -168.5t40 -121t64.5 -68.5t94 -23.5q87 0 138.5 56 t89.5 184v751q-41 116 -92 168t-132 52q-47 0 -82.5 -15.5t-61 -49.5t-42 -81t-26 -118t-13.5 -151.5t-4 -189.5z" />
<glyph unicode="&#x153;" horiz-adv-x="1644" d="M90 440q0 354 140.5 533.5t416.5 179.5q27 0 119 -10q84 -13 131 -13h635v-241h-184q-49 0 -70.5 0.5t-57 6.5t-63.5 19l-27 -38q52 -58 52 -123v-49q0 -65 -52 -123l25 -39q60 35 172 35h184v-252h-163q-49 0 -70.5 0.5t-57 6.5t-63.5 19l-27 -39q52 -58 52 -125v-69 q0 -62 -52 -123l25 -39q39 22 77.5 28.5t94.5 6.5h229v-248l-643 2q-45 0 -143 -12q-106 -13 -121 -13q-559 0 -559 719zM469 436q0 -258 35.5 -362.5t142.5 -104.5q109 0 145.5 103.5t36.5 363.5q0 258 -35.5 363.5t-142.5 105.5q-39 0 -67.5 -12t-49 -38.5t-33 -62.5 t-20 -92t-10 -117t-2.5 -147z" />
<glyph unicode="&#x178;" horiz-adv-x="1394" d="M12 1479h422l82 -203q71 -176 110.5 -329.5t45.5 -311.5h78q8 158 48.5 306.5t110.5 328.5l80 209h393l-493 -1067v-668h-387v668zM307 1614v260h322q-13 -86 -13 -131q0 -43 13 -129h-322zM768 1614q12 85 12 129q0 49 -12 131h322v-260h-322z" />
<glyph unicode="&#x2c6;" horiz-adv-x="1024" d="M150 1251v60q88 37 202 219h322q97 -169 200 -219v-60h-210q-51 26 -82.5 61t-51.5 89h-36q-22 -55 -53 -89.5t-81 -60.5h-210z" />
<glyph unicode="&#x2dc;" horiz-adv-x="1024" d="M129 1255q65 258 262 258q59 0 161.5 -37t121.5 -42q39 42 55 92h170q-39 -131 -102 -195.5t-156 -64.5q-103 0 -289 88q-40 -43 -57 -99h-166z" />
<glyph unicode="&#x2000;" horiz-adv-x="1017" />
<glyph unicode="&#x2001;" horiz-adv-x="2034" />
<glyph unicode="&#x2002;" horiz-adv-x="1017" />
<glyph unicode="&#x2003;" horiz-adv-x="2034" />
<glyph unicode="&#x2004;" horiz-adv-x="678" />
<glyph unicode="&#x2005;" horiz-adv-x="508" />
<glyph unicode="&#x2006;" horiz-adv-x="339" />
<glyph unicode="&#x2007;" horiz-adv-x="339" />
<glyph unicode="&#x2008;" horiz-adv-x="254" />
<glyph unicode="&#x2009;" horiz-adv-x="406" />
<glyph unicode="&#x200a;" horiz-adv-x="113" />
<glyph unicode="&#x2010;" d="M164 446v340h1038v-340h-1038z" />
<glyph unicode="&#x2011;" d="M164 446v340h1038v-340h-1038z" />
<glyph unicode="&#x2012;" d="M164 446v340h1038v-340h-1038z" />
<glyph unicode="&#x2013;" horiz-adv-x="1024" d="M0 446v340h1024v-340h-1024z" />
<glyph unicode="&#x2014;" horiz-adv-x="2048" d="M0 446v340h2048v-340h-2048z" />
<glyph unicode="&#x2018;" horiz-adv-x="681" d="M129 1085v394h424v-394h-164v-57q0 -107 25 -149.5t100 -42.5q25 0 39 2v-148q-46 -4 -64 -4q-203 0 -281.5 91t-78.5 308z" />
<glyph unicode="&#x2019;" horiz-adv-x="681" d="M129 690v148q14 -2 41 -2q73 0 99 43.5t26 148.5v57h-166v394h424v-394q0 -217 -78.5 -308t-281.5 -91q-18 0 -64 4z" />
<glyph unicode="&#x201a;" horiz-adv-x="681" d="M129 -57v393h424v-393q0 -217 -78.5 -307.5t-281.5 -90.5q-16 0 -37.5 1t-26.5 1v148q14 -2 39 -2q75 0 101 43t26 149v58h-166z" />
<glyph unicode="&#x201c;" horiz-adv-x="1363" d="M129 1085v394h424v-394h-164v-57q0 -107 25 -149.5t100 -42.5q25 0 39 2v-148q-46 -4 -64 -4q-203 0 -281.5 91t-78.5 308zM811 1085v394h424v-394h-164v-57q0 -107 25 -149.5t100 -42.5q25 0 39 2v-148q-46 -4 -64 -4q-203 0 -281.5 91t-78.5 308z" />
<glyph unicode="&#x201d;" horiz-adv-x="1363" d="M129 690v148q14 -2 41 -2q73 0 99 43.5t26 148.5v57h-166v394h424v-394q0 -217 -78.5 -308t-281.5 -91q-18 0 -64 4zM811 690v148q14 -2 41 -2q73 0 99 43.5t26 148.5v57h-166v394h424v-394q0 -217 -79 -308t-282 -91q-17 0 -63 4z" />
<glyph unicode="&#x201e;" horiz-adv-x="1363" d="M129 -57v393h424v-393q0 -217 -78.5 -307.5t-281.5 -90.5q-16 0 -37.5 1t-26.5 1v148q14 -2 39 -2q75 0 101 43t26 149v58h-166zM811 -57v393h424v-393q0 -217 -79 -307.5t-282 -90.5q-16 0 -37 1t-26 1v148q14 -2 39 -2q75 0 101 43t26 149v58h-166z" />
<glyph unicode="&#x2022;" horiz-adv-x="1208" d="M250 567q0 148 104 251.5t252 103.5q147 0 251 -104t104 -251t-104.5 -251.5t-252.5 -104.5t-251 104t-103 252z" />
<glyph unicode="&#x2026;" horiz-adv-x="2048" d="M129 227h428v-483h-428v483zM809 227h428v-483h-428v483zM1489 227h428v-483h-428v483z" />
<glyph unicode="&#x202f;" horiz-adv-x="406" />
<glyph unicode="&#x2039;" horiz-adv-x="681" d="M27 614l258 320h329l-256 -320l265 -315h-332z" />
<glyph unicode="&#x203a;" horiz-adv-x="681" d="M59 299l265 315l-256 320h329l258 -320l-264 -315h-332z" />
<glyph unicode="&#x205f;" horiz-adv-x="508" />
<glyph unicode="&#x2122;" horiz-adv-x="1705" d="M51 1249v185h643v-185h-198v-659h-246v659h-199zM887 590v844h319l183 -490l182 490h319v-844h-221v553h-4l-186 -553h-181l-186 553h-4v-553h-221z" />
<glyph unicode="&#xe000;" horiz-adv-x="1126" d="M0 0v1126h1126v-1126h-1126z" />
<glyph unicode="&#xfb01;" horiz-adv-x="1777" d="M150 -256v1386h856v-241h-338q-49 0 -70.5 0.5t-57 6.5t-63.5 19l-26 -38q51 -57 51 -123v-49q0 -66 -51 -123l24 -39q60 35 172 35h338v-252h-317q-49 0 -70.5 0.5t-57 6.5t-63.5 19l-26 -39q51 -57 51 -125v-444h-352zM1229 -256v1386h354v-1386h-354z" />
<glyph unicode="&#xfb02;" horiz-adv-x="2045" d="M150 -256v1386h856v-241h-338q-49 0 -70.5 0.5t-57 6.5t-63.5 19l-26 -38q51 -57 51 -123v-49q0 -66 -51 -123l24 -39q60 35 172 35h338v-252h-317q-49 0 -70.5 0.5t-57 6.5t-63.5 19l-26 -39q51 -57 51 -125v-444h-352zM1184 -256v1386h352v-987q0 -51 -12 -83t-39 -64 l24 -39q39 22 77.5 28.5t94.5 6.5h334v-248h-831z" />
</font>
</defs>
</svg>
